<?xml version="1.0" encoding="UTF-8" standalone="no"?>
<svg
   xmlns:osb="http://www.openswatchbook.org/uri/2009/osb"
   xmlns:dc="http://purl.org/dc/elements/1.1/"
   xmlns:cc="http://creativecommons.org/ns#"
   xmlns:rdf="http://www.w3.org/1999/02/22-rdf-syntax-ns#"
   xmlns:svg="http://www.w3.org/2000/svg"
   xmlns="http://www.w3.org/2000/svg"
   xmlns:sodipodi="http://sodipodi.sourceforge.net/DTD/sodipodi-0.dtd"
   xmlns:inkscape="http://www.inkscape.org/namespaces/inkscape"
   width="2500"
   height="2500"
   viewBox="0 0 416.12484 416"
   preserveAspectRatio="xMidYMid"
   version="1.1"
   id="svg6"
   sodipodi:docname="Kafka.svg"
   inkscape:version="0.92.3 (2405546, 2018-03-11)">
  <defs
     id="defs10">
    <linearGradient
       id="linearGradient4522"
       osb:paint="solid">
      <stop
         style="stop-color:#d40000;stop-opacity:1;"
         offset="0"
         id="stop4520" />
    </linearGradient>
  </defs>
  <sodipodi:namedview
     pagecolor="#ffffff"
     bordercolor="#666666"
     borderopacity="1"
     objecttolerance="10"
     gridtolerance="10"
     guidetolerance="10"
     inkscape:pageopacity="0"
     inkscape:pageshadow="2"
     inkscape:window-width="1920"
     inkscape:window-height="1021"
     id="namedview8"
     showgrid="false"
     inkscape:zoom="0.0944"
     inkscape:cx="75.144068"
     inkscape:cy="1250"
     inkscape:window-x="0"
     inkscape:window-y="0"
     inkscape:window-maximized="1"
     inkscape:current-layer="svg6" />
  <path
     d="m 272.21581,227.36615 c -13.06445,0 -24.77694,6.25838 -32.79755,16.11156 l -20.55234,-15.73192 c 2.18171,-6.49489 3.4344,-13.46892 3.4344,-20.76847 0,-7.17301 -1.2091,-14.03009 -3.31898,-20.42898 l 20.50634,-15.56523 c 8.0198,9.80344 19.70161,16.02778 32.72813,16.02778 24.11348,0 43.73438,-21.21182 43.73438,-47.28827 0,-26.07645 -19.6209,-47.288266 -43.73438,-47.288266 -24.11347,0 -43.73437,21.211816 -43.73437,47.288266 0,4.66739 0.65217,9.16808 1.82254,13.43052 l -20.52007,15.57308 c -8.57188,-11.49828 -20.91394,-19.52657 -34.97603,-21.97721 v -26.7406 c 19.81058,-4.49895 34.73712,-23.530675 34.73712,-46.271529 0,-26.076446 -19.6209,-47.288268 -43.73437,-47.288268 -24.11348,0 -43.73438,21.211822 -43.73438,47.288268 0,22.436269 14.53992,41.233229 33.95419,46.053349 v 27.08795 c -26.49536,5.02869 -46.70951,30.0308 -46.70951,60.09914 0,30.21496 20.41433,55.3087 47.10098,60.16634 v 28.60302 c -19.61283,4.66128 -34.34566,23.57344 -34.34566,46.16244 0,26.07645 19.6209,47.28827 43.73438,47.28827 24.11347,0 43.73437,-21.21182 43.73437,-47.28827 0,-22.589 -14.73283,-41.50116 -34.34566,-46.16244 v -28.60389 a 56.471937,61.060898 0 0 0 34.3844,-21.62288 l 20.68956,15.83403 c -1.14856,4.22404 -1.79186,8.68022 -1.79186,13.30048 0,26.07645 19.6209,47.28827 43.73437,47.28827 24.11348,0 43.73438,-21.21182 43.73438,-47.28827 0,-26.07645 -19.6209,-47.28827 -43.73438,-47.28827 z m 0,-110.57115 c 11.69312,0 21.20372,10.2878 21.20372,22.92762 0,12.63982 -9.5106,22.92675 -21.20372,22.92675 -11.69311,0 -21.20371,-10.28693 -21.20371,-22.92675 0,-12.63982 9.5106,-22.92762 21.20371,-22.92762 z M 144.60611,73.736881 c 0,-12.63982 9.5114,-22.926746 21.20452,-22.926746 11.69311,0 21.20371,10.286926 21.20371,22.926746 0,12.63982 -9.5106,22.926746 -21.20371,22.926746 -11.69312,0 -21.20452,-10.286926 -21.20452,-22.926746 z m 42.40823,268.172239 c 0,12.63982 -9.5106,22.92674 -21.20371,22.92674 -11.69312,0 -21.20452,-10.28692 -21.20452,-22.92674 0,-12.63982 9.5114,-22.92675 21.20452,-22.92675 11.69311,0 21.20371,10.28693 21.20371,22.92675 z M 165.80901,238.95258 c -16.30837,0 -29.57542,-14.34252 -29.57542,-31.97526 0,-17.63361 13.26705,-31.97875 29.57542,-31.97875 16.30757,0 29.57462,14.34514 29.57462,31.97875 0,17.63274 -13.26705,31.97526 -29.57462,31.97526 z m 106.4068,58.62946 c -11.69311,0 -21.20371,-10.2878 -21.20371,-22.92762 0,-12.63982 9.5106,-22.92674 21.20371,-22.92674 11.69312,0 21.20372,10.28692 21.20372,22.92674 0,12.63982 -9.5106,22.92762 -21.20372,22.92762 z"
     id="path2"
     style="fill:#8c2131;fill-opacity:1;stroke-width:0.83929974"
     inkscape:connector-curvature="0" />
  <metadata
     id="metadata4">
    <rdf:RDF>
      <rdf:Description
         about="https://iconscout.com/legal#licenses"
         dc:title="kafka"
         dc:description="kafka"
         dc:publisher="Iconscout"
         dc:date="2017-07-12"
         dc:format="image/svg+xml"
         dc:language="en">
        <dc:creator>
          <rdf:Bag>
            <rdf:li>Icon Mafia</rdf:li>
          </rdf:Bag>
        </dc:creator>
      </rdf:Description>
      <cc:Work
         rdf:about="">
        <dc:format>image/svg+xml</dc:format>
        <dc:type
           rdf:resource="http://purl.org/dc/dcmitype/StillImage" />
        <dc:title></dc:title>
      </cc:Work>
    </rdf:RDF>
  </metadata>
  <text
     xml:space="preserve"
     style="font-style:normal;font-variant:normal;font-weight:bold;font-stretch:normal;font-size:159.49304199px;line-height:1.25;font-family:'Open Sans';-inkscape-font-specification:'Open Sans Bold';letter-spacing:0px;word-spacing:0px;fill:#b8b122;fill-opacity:1;stroke:#ffffff;stroke-width:3.98732591;stroke-opacity:1"
     x="26.53293"
     y="238.43889"
     id="text5986"
     transform="scale(0.88014339,1.1361785)"><tspan
       sodipodi:role="line"
       id="tspan5984"
       x="26.53293"
       y="238.43889"
       style="font-style:normal;font-variant:normal;font-weight:bold;font-stretch:normal;font-family:'Open Sans';-inkscape-font-specification:'Open Sans Bold';fill:#b8b122;fill-opacity:1;stroke:#ffffff;stroke-width:3.98732591;stroke-opacity:1">H    Q</tspan></text>
</svg>
