<svg xmlns="http://www.w3.org/2000/svg" width="2500" height="2500" viewBox="0 0 192.756 192.756"><g fill-rule="evenodd" clip-rule="evenodd"><path fill="#fff" d="M0 0h192.756v192.756H0V0z"/><path fill="#00acec" d="M2.834 72.647h187.088v47.462H2.834V72.647z"/><path d="M77.582 83.824l-9.144 15.965c-.189.34-1.996 3.088-5.661 3.338-3.65.17-6.737-3.271-6.677-6.967.119-3.678 2.867-6.617 6.532-6.676 3.12.06 5.406 2.458 5.37 2.467.665.578 1.098.995 1.596 1.742l3.338-5.806c-.597-.627-.85-.898-1.596-1.451-1.896-1.699-4.671-3.055-8.563-3.193-3.757-.077-7.532 1.487-10.45 5.225-1.795 2.393-2.519 4.531-2.612 7.692.042 3.691 1.381 6.689 3.338 8.854 3.352 3.504 7.409 4.346 9.58 4.355 3.117-.137 5.386-.889 7.547-2.324.677-.469 1.416-1.098 2.177-1.887h5.806v3.629h5.951V83.824h-6.532zm.581 16.11H74.97l3.193-5.66v5.66zM89.975 108.934V89.731h-4.703v-5.802h15.712v5.802h-4.81v19.203h-6.199zM114.615 99.367h-6.342v9.567h-6.199V83.929h6.199v9.495h6.342v-9.495h6.235v25.005h-6.235v-9.567zM172.301 83.929V97.82l-9.299-13.891h-5.594v8.448c-.633-1.922-1.734-3.698-3.291-5.212-2.459-2.392-5.666-3.693-9.051-3.693-3.598 0-6.732 1.231-9.227 3.658-2.494 2.426-3.848 5.591-3.848 9.039 0 2.744.672 5.158 1.998 7.244h-4.742V83.929h-6.164v25.004h13.396v-2.641c2.35 2.045 5.24 3.098 8.551 3.098 3.527 0 6.877-1.373 9.336-3.904a12.547 12.547 0 0 0 3.041-5.082v8.529h6.199V95.007l9.441 13.927h5.451V83.929h-6.197zm-27.27 19.272c-3.492 0-6.662-3.025-6.662-6.963 0-3.658 2.957-6.577 6.734-6.577 3.562 0 6.52 2.919 6.52 6.577 0 4.078-2.957 6.963-6.592 6.963z" fill="#fff"/><path d="M49.715 89.338v-5.515H35.927v10.289c-.417-2.978-1.608-5.411-3.528-7.195-2.637-2.462-5.451-2.989-9.477-2.989h-8.658v25.004h9.513c3.562 0 5.95-.494 8.658-3.096 1.913-1.859 3.08-4.209 3.492-6.982v9.932h13.789v-5.369h-7.693v-4.645H48.7v-5.371h-6.677v-4.064h7.692v.001zm-26.757 14.109h-2.494V89.309h2.458c4.56 0 7.019 2.532 7.019 7.034-.001 4.923-2.245 7.104-6.983 7.104z" fill="#fff"/></g></svg>