<?xml version="1.0" encoding="utf-8"?>
<!-- Generator: Adobe Illustrator 21.1.0, SVG Export Plug-In . SVG Version: 6.00 Build 0)  -->
<svg version="1.1"
	 id="svg6" inkscape:version="0.92.3 (2405546, 2018-03-11)" sodipodi:docname="Kafka.svg" xmlns:cc="http://creativecommons.org/ns#" xmlns:dc="http://purl.org/dc/elements/1.1/" xmlns:inkscape="http://www.inkscape.org/namespaces/inkscape" xmlns:osb="http://www.openswatchbook.org/uri/2009/osb" xmlns:rdf="http://www.w3.org/1999/02/22-rdf-syntax-ns#" xmlns:sodipodi="http://sodipodi.sourceforge.net/DTD/sodipodi-0.dtd" xmlns:svg="http://www.w3.org/2000/svg"
	 xmlns="http://www.w3.org/2000/svg" xmlns:xlink="http://www.w3.org/1999/xlink" x="0px" y="0px" viewBox="0 0 2500 2500"
	 style="enable-background:new 0 0 2500 2500;" xml:space="preserve">
<style type="text/css">
	.st0{fill:#000000;}
	.st1{fill:#FFFFFF;}
</style>
<g id="logo_1_">
	<path id="main" class="st0" d="M1637,777.5c-74.6,0-144.6,20-205,54.9l-203-203c23.9-52.1,37.4-110.1,37.4-171.1
		c0-227.1-184.8-411.9-411.9-411.9S442.5,231.1,442.5,458.2s184.8,411.9,411.9,411.9c91.2,0,175.6-29.8,243.9-80.2l186.4,186.4
		c-37.8,62.2-59.5,135.2-59.5,213.1c0,79,22.4,152.8,61,215.5l-166.8,166.7c-71.2-58.6-162.3-93.9-261.5-93.9
		c-227.1,0-411.9,184.8-411.9,411.9c0,140.8,71.1,265.4,179.2,339.7L857.9,2462l232.7-232.7c108.1-74.3,179.2-198.8,179.2-339.7
		c0-52.6-10-102.8-28-149.1l192.7-192.7c59.9,34,129,53.5,202.6,53.5c227.1,0,411.9-184.8,411.9-411.9S1864.1,777.5,1637,777.5z
		 M854.4,664.2c-113.6,0-206-92.4-206-206s92.4-206,206-206s206,92.4,206,206S967.9,664.2,854.4,664.2z M857.9,1683.7
		c113.6,0,206,92.4,206,206c0,113.6-92.4,206-206,206s-206-92.4-206-206C651.9,1776.1,744.3,1683.7,857.9,1683.7z M1637,1395.4
		c-113.6,0-206-92.4-206-206s92.4-206,206-206s206,92.4,206,206S1750.6,1395.4,1637,1395.4z"/>
	<path id="dot_1_" class="st1" d="M861.3,1776.4c-64.4,0-116.7,52.4-116.7,116.7c0,64.4,52.4,116.7,116.7,116.7s116.7-52.4,116.7-116.7
		C978.1,1828.7,925.7,1776.4,861.3,1776.4z"/>
</g>
</svg>
