<svg xmlns="http://www.w3.org/2000/svg" viewBox="0 0 2500 2500" style="enable-background:new 0 0 2500 2500" xml:space="preserve"><path d="M1637 777.5c-74.6 0-144.6 20-205 54.9l-203-203c23.9-52.1 37.4-110.1 37.4-171.1 0-227.1-184.8-411.9-411.9-411.9s-412 184.7-412 411.8 184.8 411.9 411.9 411.9c91.2 0 175.6-29.8 243.9-80.2l186.4 186.4c-37.8 62.2-59.5 135.2-59.5 213.1 0 79 22.4 152.8 61 215.5l-166.8 166.7c-71.2-58.6-162.3-93.9-261.5-93.9-227.1 0-411.9 184.8-411.9 411.9 0 140.8 71.1 265.4 179.2 339.7L857.9 2462l232.7-232.7c108.1-74.3 179.2-198.8 179.2-339.7 0-52.6-10-102.8-28-149.1l192.7-192.7c59.9 34 129 53.5 202.6 53.5 227.1 0 411.9-184.8 411.9-411.9s-184.9-411.9-412-411.9zM854.4 664.2c-113.6 0-206-92.4-206-206s92.4-206 206-206 206 92.4 206 206-92.5 206-206 206zm3.5 1019.5c113.6 0 206 92.4 206 206s-92.4 206-206 206-206-92.4-206-206 92.4-206 206-206zm779.1-288.3c-113.6 0-206-92.4-206-206s92.4-206 206-206 206 92.4 206 206-92.4 206-206 206z" style="fill:#ecbb13"/><path d="M861.3 1776.4c-64.4 0-116.7 52.4-116.7 116.7 0 64.4 52.4 116.7 116.7 116.7S978 1957.4 978 1893.1c.1-64.4-52.3-116.7-116.7-116.7z"/></svg>