<?xml version="1.0" encoding="utf-8"?>
<!-- Generator: Adobe Illustrator 21.1.0, SVG Export Plug-In . SVG Version: 6.00 Build 0)  -->
<svg version="1.1" id="logo" xmlns="http://www.w3.org/2000/svg" xmlns:xlink="http://www.w3.org/1999/xlink" x="0px" y="0px"
	 viewBox="0 0 1027.9 315.4" style="enable-background:new 0 0 1027.9 315.4;" xml:space="preserve">
<style type="text/css">
	.st0{fill:#ECBB13;}
	.st1{fill:#FFFFFF;}
	.st2{clip-path:url(#SVGID_2_);fill:#ECBB13;}
	.st3{clip-path:url(#SVGID_2_);fill:#FFFFFF;}
</style>
<g id="logo_1_">
	<path id="main" class="st0" d="M130,137.3c-7.2,0-14,1.9-19.9,5.3l-19.7-19.7c2.3-5.1,3.6-10.7,3.6-16.6c0-22.1-17.9-40-40-40
		s-40,17.9-40,40s17.9,40,40,40c8.9,0,17-2.9,23.7-7.8l18.1,18.1c-3.7,6-5.8,13.1-5.8,20.7c0,7.7,2.2,14.8,5.9,20.9l-16.2,16.2
		c-6.9-5.7-15.8-9.1-25.4-9.1c-22.1,0-40,17.9-40,40c0,13.7,6.9,25.8,17.4,33l22.6,22.6l22.6-22.6c10.5-7.2,17.4-19.3,17.4-33
		c0-5.1-1-10-2.7-14.5l18.7-18.7c5.8,3.3,12.5,5.2,19.7,5.2c22.1,0,40-17.9,40-40S152.1,137.3,130,137.3z M54,126.3
		c-11,0-20-9-20-20s9-20,20-20s20,9,20,20S65,126.3,54,126.3z M54.3,225.3c11,0,20,9,20,20c0,11-9,20-20,20s-20-9-20-20
		C34.3,234.3,43.3,225.3,54.3,225.3z M130,197.3c-11,0-20-9-20-20s9-20,20-20s20,9,20,20S141,197.3,130,197.3z"/>
	<path id="dot_1_" class="st1" d="M54.7,234.3c-6.3,0-11.3,5.1-11.3,11.3S48.4,257,54.7,257S66,251.9,66,245.7
		S60.9,234.3,54.7,234.3z"/>
</g>
<g id="letters">
	<g>
		<defs>
			<rect id="SVGID_1_" x="10" y="148" width="1010.9" height="153.4"/>
		</defs>
		<clipPath id="SVGID_2_">
			<use xlink:href="#SVGID_1_"  style="overflow:visible;"/>
		</clipPath>
		<rect id="i" x="823.8" y="193" class="st2" width="28" height="108"/>
		<path id="o" class="st2" d="M940,301.2c-40.8,0-74-34.3-74-76.5c0-42.2,33.2-76.5,74-76.5s74,34.3,74,76.5
			C1014,266.8,980.8,301.2,940,301.2z M940,176.2c-25.4,0-46,21.8-46,48.5s20.6,48.5,46,48.5s46-21.8,46-48.5S965.4,176.2,940,176.2
			z"/>
		<rect id="i_." x="823.8" y="133" class="st2" width="28" height="45"/>
		<path id="dot" class="st3" d="M800.7,280.3c-6.3,0-11.3,5.1-11.3,11.3s5.1,11.3,11.3,11.3c6.3,0,11.3-5.1,11.3-11.3
			S806.9,280.3,800.7,280.3z"/>
		<path id="q" class="st3" d="M778.4,302.2l-21.9-24.7c12.7-13.7,20.5-32.3,20.5-52.8c0-42.2-33.2-76.5-74-76.5s-74,34.3-74,76.5
			c0,42.2,33.2,76.5,74,76.5c11,0,21.5-2.5,30.9-7l23.6,26.6L778.4,302.2z M657,224.7c0-26.7,20.6-48.5,46-48.5s46,21.8,46,48.5
			s-20.6,48.5-46,48.5S657,251.4,657,224.7z"/>
		<polygon id="h" class="st3" points="586.8,118 586.8,206 524.8,206 524.8,114 496.8,114 496.8,301 524.8,301 524.8,234 586.8,234 
			586.8,301 614.8,301 614.8,118 		"/>
		<polygon id="k_1_" class="st3" points="508.2,120 487.8,100.8 373.8,221.9 380.7,228.3 380.3,228.6 481,342.3 502,323.8 
			412,222.2 		"/>
		<path id="a" class="st3" d="M326.8,148v20c-13.2-12.4-30.6-20-49.8-20c-40.8,0-74,34.3-74,76.5s33.2,76.5,74,76.5
			c19.2,0,36.7-7.6,49.8-20v20h28V148H326.8z M277,273c-25.4,0-46-21.8-46-48.5s20.6-48.5,46-48.5s46,21.8,46,48.5
			S302.4,273,277,273z"/>
	</g>
	<rect id="k" x="368.8" y="14" class="st1" width="28" height="287"/>
</g>
</svg>
