<?xml version="1.0" encoding="utf-8"?>
<!-- Generator: Adobe Illustrator 23.0.3, SVG Export Plug-In . SVG Version: 6.00 Build 0)  -->
<svg version="1.1" id="Calque_1" xmlns="http://www.w3.org/2000/svg" xmlns:xlink="http://www.w3.org/1999/xlink" x="0px" y="0px"
	 width="72px" height="72.042px" viewBox="0 0 72 72.042" style="enable-background:new 0 0 72 72.042;" xml:space="preserve">
<style type="text/css">
	.st0{fill:#FC0D1A;}
	.st1{fill:#FFFFFF;}
</style>
<g>
	<polygon class="st0" points="71,63.46132 51.02508,8.58068 1,53.62345 	"/>
	<g>
		<rect x="46.80593" y="36.02102" class="st1" width="3.9882" height="13.72014"/>
		<path class="st1" d="M37.89043,44.29941l1.18997-4.35078l1.20705,4.35078H37.89043z M36.93204,36.02102l-4.93209,13.72014h4.44532
			l0.72466-2.25849h3.83849l0.72487,2.25849h4.44554l-4.9318-13.72014H36.93204z"/>
		<polygon class="st1" points="15.79755,49.74115 19.67019,49.74115 19.67019,42.01681 22.32303,47.6714 24.84701,47.6714 
			27.50008,42.01681 27.50008,49.74114 31.37247,49.74114 31.37247,36.02102 26.72703,36.02102 23.64243,42.71462 
			20.54948,36.02102 15.79732,36.02102 		"/>
		<polygon class="st1" points="52.30652,36.02102 52.30652,49.74115 56.29471,49.74115 56.29471,44.47228 61.32044,44.47228 
			61.85706,41.21393 56.29471,41.21393 56.29471,39.27959 62.19859,39.27959 62.72773,36.02102 		"/>
	</g>
</g>
</svg>
