<?xml version="1.0" encoding="utf-8"?>
<!-- Generator: Adobe Illustrator 19.0.0, SVG Export Plug-In . SVG Version: 6.00 Build 0)  -->
<svg version="1.1" xmlns="http://www.w3.org/2000/svg" xmlns:xlink="http://www.w3.org/1999/xlink" x="0px" y="0px"
	 viewBox="0 0 1100 500" style="enable-background:new 0 0 1100 500;" xml:space="preserve">
<style type="text/css">
	.st0{clip-path:url(#XMLID_52_);fill:#ECBB13;stroke:#ECBB13;stroke-miterlimit:10;}
	.st1{fill:none;stroke:#ECBB13;stroke-width:20;stroke-miterlimit:10;}
	.st2{fill:#FFFFFF;stroke:#FFFFFF;stroke-width:10;stroke-miterlimit:10;}
	.st3{display:none;stroke:#000000;stroke-width:10;stroke-miterlimit:10;}
	.st4{clip-path:url(#XMLID_57_);fill:none;stroke:#FFFFFF;stroke-width:28;stroke-miterlimit:10;}
	.st5{clip-path:url(#XMLID_57_);}
	.st6{display:none;}
	.st7{display:none;clip-path:url(#XMLID_57_);fill:none;stroke:#C1272D;stroke-width:4;stroke-miterlimit:10;}
	.st8{clip-path:url(#XMLID_57_);fill:none;stroke:#ECBB13;stroke-width:28;stroke-miterlimit:10;}
	.st9{fill:none;stroke:#FFFFFF;stroke-width:28;stroke-miterlimit:10;}
	.st10{display:none;stroke:#000000;stroke-width:20;stroke-miterlimit:10;}
	.st11{display:inline;}
	.st12{fill:none;stroke:#FF0000;stroke-miterlimit:1;}
	.st13{fill:#FF0000;}
	.st14{opacity:0.49;}
	.st15{fill:#FFFFFF;}
	.st16{display:inline;fill:none;stroke:#999999;stroke-miterlimit:1;}
	.st17{display:inline;fill:#FF0000;}
	.st18{font-family:'Roboto-Regular';}
	.st19{font-size:10.0393105px;}
	.st20{font-size:12px;}
	.st21{display:inline;fill:none;stroke:#FF0000;stroke-miterlimit:1;}
	.st22{font-size:14.7928896px;}
</style>
<g id="Bolinhas">
	<g id="Layer_11">
		<defs>
			<rect id="XMLID_14_" x="19.333334" y="328.1932678" width="155.3333282" height="40.8067169"/>
		</defs>
		<clipPath id="XMLID_52_">
			<use xlink:href="#XMLID_14_"  style="overflow:visible;"/>
		</clipPath>
		<polygon id="XMLID_2_" class="st0" points="104.5,353.9075317 76.710701,326.1182251 48.9214058,298.3289185 
			76.710701,270.5396423 104.5,242.7503357 132.2892914,270.5396423 160.078598,298.3289185 132.2892914,326.1182251 		"/>
	</g>
	<circle id="XMLID_51_" class="st1" cx="180.1607971" cy="230.3289337" r="30"/>
	<line id="XMLID_50_" class="st1" x1="158.8646851" y1="208.4163971" x2="128.1822052" y2="177.7339172"/>
	<circle id="XMLID_48_" class="st1" cx="104.1607971" cy="159.3289337" r="30"/>
	<circle id="XMLID_46_" class="st1" cx="104.5" cy="298.3289185" r="30"/>
	<line id="XMLID_44_" class="st1" x1="158.5564728" y1="252.928833" x2="129.8717957" y2="281.6135254"/>
	<circle id="XMLID_41_" class="st2" cx="104.8355331" cy="298.6644592" r="6.335537"/>
	<circle id="XMLID_1_" class="st3" cx="989.8355103" cy="277.6644592" r="6.335537"/>
	<circle id="XMLID_29_" class="st2" cx="850.8355103" cy="344.6644592" r="6.335537"/>
</g>
<g id="k">
	<defs>
		<rect id="XMLID_5_" x="60.1130943" y="200.9870453" width="1010.9494629" height="153.4259033"/>
	</defs>
	<clipPath id="XMLID_57_">
		<use xlink:href="#XMLID_5_"  style="overflow:visible;"/>
	</clipPath>
	<line id="k2_1_" class="st4" x1="548.180542" y1="163.4135284" x2="434.1557312" y2="284.48526"/>
	<line id="k1_1_" class="st4" x1="541.6560059" y1="386.0341797" x2="440.957428" y2="272.3523865"/>
	<line id="a1_1_" class="st4" x1="391" y1="201" x2="391" y2="354"/>
	<ellipse id="a2_3_" class="st4" cx="753.1915894" cy="277.6666565" rx="60" ry="62.5"/>
	<line id="h3" class="st4" x1="664" y1="273" x2="548" y2="273"/>
	<line id="h2" class="st4" x1="651" y1="171" x2="651" y2="354"/>
	<line id="h1" class="st4" x1="561" y1="167" x2="561" y2="354"/>
	<g id="H_letter" class="st5">
		<g id="Layer_10" class="st6">
		</g>
	</g>
	<ellipse id="a2_1_" class="st4" cx="327.1919861" cy="277.5" rx="60" ry="62.5"/>
	<rect id="XMLID_23_" x="362.5" y="204.375" class="st7" width="28.5" height="147.625"/>
	<line id="k1_2_" class="st4" x1="818.0891113" y1="364.4981384" x2="786.9574585" y2="329.3523865"/>
	<line id="a1_2_" class="st8" x1="888" y1="246" x2="888" y2="354"/>
	<ellipse id="a2_2_" class="st8" cx="990.1915894" cy="277.6666565" rx="60" ry="62.5"/>
	<line id="a1_3_" class="st8" x1="888" y1="186" x2="888" y2="231"/>
</g>
<g id="Letras">
	<g id="g2">
	</g>
	<line id="k3_1_" class="st9" x1="433" y1="67" x2="433" y2="354"/>
	<circle id="q-inside_1_" class="st10" cx="990.3353271" cy="277.787262" r="20.7837276"/>
</g>
<g id="Guidelines" class="st6">
	<g id="XMLID_49_" class="st11">
		<g id="XMLID_184_">
			<line id="XMLID_190_" class="st12" x1="639" y1="37.5" x2="663" y2="37.5"/>
			<g id="XMLID_188_">
				<polygon id="XMLID_189_" class="st13" points="642.3980103,41.5327454 643.0801392,40.8003235 639.4683228,37.4438782 
					643.0801392,34.0864487 642.3980103,33.3540306 638,37.4438782 				"/>
			</g>
			<g id="XMLID_186_">
				<polygon id="XMLID_187_" class="st13" points="659.4769897,41.5327454 658.7948608,40.8003235 662.4066772,37.4438782 
					658.7948608,34.0864487 659.4769897,33.3540306 663.875,37.4438782 				"/>
			</g>
		</g>
	</g>
	<g id="XMLID_47_" class="st11">
		<g id="XMLID_172_">
			<line id="XMLID_178_" class="st12" x1="549" y1="37.5" x2="573" y2="37.5"/>
			<g id="XMLID_176_">
				<polygon id="XMLID_177_" class="st13" points="552.3979492,41.5327454 553.0800781,40.8003235 549.4682617,37.4438782 
					553.0800781,34.0864563 552.3979492,33.3540344 548,37.4438782 				"/>
			</g>
			<g id="XMLID_173_">
				<polygon id="XMLID_175_" class="st13" points="569.6020508,41.5327454 568.9199219,40.8003235 572.5317383,37.4438782 
					568.9199219,34.0864563 569.6020508,33.3540344 574,37.4438782 				"/>
			</g>
		</g>
	</g>
	<g id="XMLID_371_" class="st11">
		<g id="XMLID_165_">
			<line id="XMLID_170_" class="st12" x1="421" y1="37.5" x2="445" y2="37.5"/>
			<g id="XMLID_168_">
				<polygon id="XMLID_169_" class="st13" points="424.5229797,41.5327454 425.2051086,40.8003235 421.5932922,37.4438782 
					425.2051086,34.0864487 424.5229797,33.3540306 420.125,37.4438782 				"/>
			</g>
			<g id="XMLID_166_">
				<polygon id="XMLID_167_" class="st13" points="441.4770203,41.5327454 440.7948914,40.8003235 444.4067078,37.4438782 
					440.7948914,34.0864487 441.4770203,33.3540306 445.875,37.4438782 				"/>
			</g>
		</g>
	</g>
	<g id="XMLID_355_" class="st11">
		<g id="XMLID_196_" class="st14">
			<path id="XMLID_6_" class="st15" d="M348.25,65.1128616c0.0053406,0,0.0055237-0.7257233,0-0.7257233
				C348.2446594,64.3871384,348.2444763,65.1128616,348.25,65.1128616L348.25,65.1128616z"/>
		</g>
	</g>
	<line id="XMLID_354_" class="st16" x1="404.5" y1="201" x2="404.5" y2="35"/>
	<line id="XMLID_353_" class="st16" x1="377.5" y1="201" x2="377.5" y2="35"/>
	<line id="XMLID_352_" class="st16" x1="419.5" y1="67" x2="419.5" y2="35"/>
	<line id="XMLID_351_" class="st16" x1="446.5" y1="67" x2="446.5" y2="35"/>
	<line id="XMLID_30_" class="st16" x1="547.5" y1="201" x2="547.5" y2="35"/>
	<line id="XMLID_31_" class="st16" x1="574.5" y1="201" x2="574.5" y2="35"/>
	<line id="XMLID_32_" class="st16" x1="637.5" y1="201" x2="637.5" y2="35"/>
	<line id="XMLID_33_" class="st16" x1="664.5" y1="201" x2="664.5" y2="35"/>
	<line id="XMLID_148_" class="st16" x1="874.5" y1="201" x2="874.5" y2="35"/>
	<line id="XMLID_142_" class="st16" x1="901.5" y1="201" x2="901.5" y2="35"/>
	<text id="XMLID_350_" transform="matrix(1.1953 0 0 1 387.4643555 34.514679)" class="st17 st18 st19">x</text>
	<text id="XMLID_348_" transform="matrix(1.1953 0 0 1 430 34.514679)" class="st17 st18 st19">x</text>
	<text id="XMLID_39_" transform="matrix(1.1953 0 0 1 558 34.514679)" class="st17 st18 st19">x</text>
	<text id="XMLID_40_" transform="matrix(1.1953 0 0 1 647.6669922 34.514679)" class="st17 st18 st19">x</text>
	<text id="XMLID_43_" transform="matrix(1.1953 0 0 1 884.4638672 34.514679)" class="st17 st18 st19">x</text>
	<line id="XMLID_259_" class="st16" x1="274" y1="200.5" x2="1086" y2="200.5"/>
	<line id="XMLID_42_" class="st16" x1="18" y1="354.5" x2="1086" y2="354.5"/>
	<text id="XMLID_38_" transform="matrix(1 0 0 1 1073 281)" class="st17 st18 st20">y</text>
	<g id="XMLID_35_" class="st11">
		<g id="XMLID_150_">
			<line id="XMLID_155_" class="st12" x1="1067.5" y1="202" x2="1067.5" y2="353"/>
			<g id="XMLID_153_">
				<polygon id="XMLID_154_" class="st13" points="1063.4101563,205.397995 1064.1425781,206.0801239 1067.4990234,202.4683075 
					1070.8564453,206.0801239 1071.5888672,205.397995 1067.4990234,201 				"/>
			</g>
			<g id="XMLID_151_">
				<polygon id="XMLID_152_" class="st13" points="1063.4101563,349.6020203 1064.1425781,348.9198914 1067.4990234,352.5317078 
					1070.8564453,348.9198914 1071.5888672,349.6020203 1067.4990234,354 				"/>
			</g>
		</g>
	</g>
	<g id="XMLID_338_" class="st11">
		<g id="XMLID_121_">
			<line id="XMLID_126_" class="st12" x1="290.7283936" y1="301.4923096" x2="304.3117371" y2="292.9213562"/>
			<g id="XMLID_122_">
				<polygon id="XMLID_123_" class="st13" points="295.7131348,303.1829529 295.8991699,302.1995239 291.0535278,301.2883301 
					292.3164063,296.5214844 291.3486938,296.2660828 289.8117371,302.0718689 				"/>
			</g>
		</g>
	</g>
	<g id="XMLID_332_" class="st11">
		<g id="XMLID_116_">
			<line id="XMLID_119_" class="st12" x1="231.0328827" y1="338.3480835" x2="265.0484619" y2="316.8846436"/>
			<g id="XMLID_117_">
				<polygon id="XMLID_118_" class="st13" points="264.4286499,322.1116638 263.4609375,321.8562622 264.7243652,317.090271 
					259.8781738,316.1782532 260.064209,315.1948242 265.9661255,316.3067322 				"/>
			</g>
		</g>
	</g>
	<text id="XMLID_331_" transform="matrix(0.85948 -0.51116 0.51116 0.85948 229.4640503 333.2091064)" class="st17 st18 st20">x</text>
	<line id="XMLID_270_" class="st16" x1="418.5" y1="354" x2="418.5" y2="412"/>
	<line id="XMLID_269_" class="st16" x1="405.5" y1="354" x2="405.5" y2="412"/>
	<text id="XMLID_268_" transform="matrix(1 0 0 1 405.5001831 425.5002441)" class="st17 st18 st20">x/2</text>
	<g id="XMLID_260_" class="st11">
		<g id="XMLID_180_">
			<line id="XMLID_183_" class="st12" x1="391" y1="407.5" x2="404" y2="407.5"/>
			<g id="XMLID_181_">
				<polygon id="XMLID_182_" class="st13" points="400.6020203,411.5898438 399.9198914,410.8574219 403.5317078,407.5009766 
					399.9198914,404.1435547 400.6020203,403.4111328 405,407.5009766 				"/>
			</g>
		</g>
	</g>
	<g id="XMLID_243_" class="st11">
		<g id="XMLID_138_">
			<line id="XMLID_160_" class="st12" x1="433" y1="407.5" x2="420" y2="407.5"/>
			<g id="XMLID_139_">
				<polygon id="XMLID_140_" class="st13" points="423.3979797,403.4101563 424.0801086,404.1425781 420.4682922,407.4990234 
					424.0801086,410.8564453 423.3979797,411.5888672 419,407.4990234 				"/>
			</g>
		</g>
	</g>
	<line id="XMLID_242_" class="st21" x1="405" y1="407.5" x2="419" y2="407.5"/>
	<line id="XMLID_195_" class="st16" x1="546.5" y1="201" x2="546.5" y2="409"/>
	<line id="XMLID_241_" class="st16" x1="533.5" y1="201" x2="533.5" y2="409"/>
	<g id="XMLID_229_" class="st11">
		<g id="XMLID_133_">
			<line id="XMLID_136_" class="st12" x1="519" y1="404.5" x2="532" y2="404.5"/>
			<g id="XMLID_134_">
				<polygon id="XMLID_135_" class="st13" points="528.6020508,408.5898438 527.9199219,407.8574219 531.5317383,404.5009766 
					527.9199219,401.1435547 528.6020508,400.4111328 533,404.5009766 				"/>
			</g>
		</g>
	</g>
	<g id="XMLID_174_" class="st11">
		<g id="XMLID_128_">
			<line id="XMLID_131_" class="st12" x1="561" y1="404.5" x2="548" y2="404.5"/>
			<g id="XMLID_129_">
				<polygon id="XMLID_130_" class="st13" points="551.3979492,400.4101563 552.0800781,401.1425781 548.4682617,404.4990234 
					552.0800781,407.8564453 551.3979492,408.5888672 547,404.4990234 				"/>
			</g>
		</g>
	</g>
	<line id="XMLID_228_" class="st21" x1="533" y1="404.5" x2="547" y2="404.5"/>
	<g id="XMLID_185_" class="st11">
		<g id="XMLID_144_">
			<line id="XMLID_163_" class="st12" x1="379" y1="37.5" x2="403" y2="37.5"/>
			<g id="XMLID_147_">
				<polygon id="XMLID_162_" class="st13" points="382.5229797,41.5327454 383.2051086,40.8003235 379.5932922,37.4438782 
					383.2051086,34.0864487 382.5229797,33.3540306 378.125,37.4438782 				"/>
			</g>
			<g id="XMLID_145_">
				<polygon id="XMLID_146_" class="st13" points="399.4770203,41.5327454 398.7948914,40.8003235 402.4067078,37.4438782 
					398.7948914,34.0864487 399.4770203,33.3540306 403.875,37.4438782 				"/>
			</g>
		</g>
	</g>
	<text id="XMLID_3_" transform="matrix(1 0 0 1 532.0001831 421.5002441)" class="st17 st18 st20">x/2</text>
	<line id="XMLID_94_" class="st16" x1="678.5" y1="201.0000153" x2="678.5" y2="411"/>
	<line id="XMLID_45_" class="st16" x1="665.5" y1="201.0000153" x2="665.5" y2="411"/>
	<g id="XMLID_27_" class="st11">
		<g id="XMLID_106_">
			<line id="XMLID_114_" class="st12" x1="651" y1="406.5" x2="664" y2="406.5"/>
			<g id="XMLID_108_">
				<polygon id="XMLID_113_" class="st13" points="660.6019897,410.5342407 659.9198608,409.8018188 663.5316772,406.4453735 
					659.9198608,403.0879517 660.6019897,402.3555298 665,406.4453735 				"/>
			</g>
		</g>
	</g>
	<g id="XMLID_37_" class="st11">
		<g id="XMLID_101_">
			<line id="XMLID_104_" class="st12" x1="693" y1="406.5" x2="680" y2="406.5"/>
			<g id="XMLID_102_">
				<polygon id="XMLID_103_" class="st13" points="683.3980103,402.3545532 684.0801392,403.0869751 680.4683228,406.4434204 
					684.0801392,409.8008423 683.3980103,410.5332642 679,406.4434204 				"/>
			</g>
		</g>
	</g>
	<line id="XMLID_34_" class="st21" x1="664" y1="406.5" x2="679" y2="406.5"/>
	<text id="XMLID_26_" transform="matrix(0.8112 0 0 1 663 423.5097656)" class="st17 st18 st22">x/2</text>
	<g id="XMLID_9_" class="st11">
		<g id="XMLID_68_">
			<line id="XMLID_125_" class="st12" x1="876" y1="37.5" x2="900" y2="37.5"/>
			<g id="XMLID_107_">
				<polygon id="XMLID_124_" class="st13" points="879.3980103,41.5327454 880.0801392,40.8003235 876.4683228,37.4438782 
					880.0801392,34.0864487 879.3980103,33.3540306 875,37.4438782 				"/>
			</g>
			<g id="XMLID_81_">
				<polygon id="XMLID_82_" class="st13" points="896.4769897,41.5327454 895.7948608,40.8003235 899.4066772,37.4438782 
					895.7948608,34.0864487 896.4769897,33.3540306 900.875,37.4438782 				"/>
			</g>
		</g>
	</g>
	<line id="XMLID_17_" class="st16" x1="840.5" y1="200.0000153" x2="840.5" y2="410"/>
	<line id="XMLID_16_" class="st16" x1="827.5" y1="200.0000153" x2="827.5" y2="410"/>
	<g id="XMLID_15_" class="st11">
		<g id="XMLID_96_">
			<line id="XMLID_99_" class="st12" x1="813" y1="405.5" x2="826" y2="405.5"/>
			<g id="XMLID_97_">
				<polygon id="XMLID_98_" class="st13" points="822.6019897,409.5342407 821.9198608,408.8018188 825.5316772,405.4453735 
					821.9198608,402.0879517 822.6019897,401.3555298 827,405.4453735 				"/>
			</g>
		</g>
	</g>
	<g id="XMLID_12_" class="st11">
		<g id="XMLID_90_">
			<line id="XMLID_93_" class="st12" x1="855" y1="405.5" x2="842" y2="405.5"/>
			<g id="XMLID_91_">
				<polygon id="XMLID_92_" class="st13" points="845.3980103,401.3545532 846.0801392,402.0869751 842.4683228,405.4434204 
					846.0801392,408.8008423 845.3980103,409.5332642 841,405.4434204 				"/>
			</g>
		</g>
	</g>
	<line id="XMLID_11_" class="st21" x1="826" y1="405.5" x2="841" y2="405.5"/>
	<text id="XMLID_7_" transform="matrix(0.8112 0 0 1 825 422.5097656)" class="st17 st18 st22">x/2</text>
	<line id="XMLID_156_" class="st16" x1="873.5" y1="201" x2="873.5" y2="379"/>
	<line id="XMLID_64_" class="st16" x1="860.5" y1="201" x2="860.5" y2="379"/>
	<g id="XMLID_63_" class="st11">
		<g id="XMLID_85_">
			<line id="XMLID_88_" class="st12" x1="846" y1="375.5" x2="859" y2="375.5"/>
			<g id="XMLID_86_">
				<polygon id="XMLID_87_" class="st13" points="855.6019897,379.2175903 854.9198608,378.4851685 858.5316772,375.1287231 
					854.9198608,371.7713013 855.6019897,371.0388794 860,375.1287231 				"/>
			</g>
		</g>
	</g>
	<g id="XMLID_20_" class="st11">
		<g id="XMLID_77_">
			<line id="XMLID_83_" class="st12" x1="888" y1="375.5" x2="875" y2="375.5"/>
			<g id="XMLID_78_">
				<polygon id="XMLID_79_" class="st13" points="878.3980103,371.0379028 879.0801392,371.7703247 875.4683228,375.12677 
					879.0801392,378.4841919 878.3980103,379.2166138 874,375.12677 				"/>
			</g>
		</g>
	</g>
	<line id="XMLID_19_" class="st21" x1="859" y1="375.5" x2="874" y2="375.5"/>
	<text id="XMLID_18_" transform="matrix(0.8112 0 0 1 859.0001221 393.5097656)" class="st17 st18 st22">x/2</text>
	<line id="XMLID_28_" class="st16" x1="915.5" y1="201.0000153" x2="915.5" y2="411"/>
	<line id="XMLID_25_" class="st16" x1="902.5" y1="201.0000153" x2="902.5" y2="411"/>
	<g id="XMLID_13_" class="st11">
		<g id="XMLID_71_">
			<line id="XMLID_75_" class="st12" x1="888" y1="406.5" x2="901" y2="406.5"/>
			<g id="XMLID_72_">
				<polygon id="XMLID_73_" class="st13" points="897.6019897,410.5342407 896.9198608,409.8018188 900.5316772,406.4453735 
					896.9198608,403.0879517 897.6019897,402.3555298 902,406.4453735 				"/>
			</g>
		</g>
	</g>
	<g id="XMLID_10_" class="st11">
		<g id="XMLID_54_">
			<line id="XMLID_69_" class="st12" x1="930" y1="406.5" x2="917" y2="406.5"/>
			<g id="XMLID_55_">
				<polygon id="XMLID_56_" class="st13" points="920.3980103,402.3545532 921.0801392,403.0869751 917.4683228,406.4434204 
					921.0801392,409.8008423 920.3980103,410.5332642 916,406.4434204 				"/>
			</g>
		</g>
	</g>
	<line id="XMLID_8_" class="st21" x1="901" y1="406.5" x2="916" y2="406.5"/>
	<text id="XMLID_4_" transform="matrix(0.8112 0 0 1 900 423.5097656)" class="st17 st18 st22">x/2</text>
	<g id="XMLID_24_" class="st11">
		<g id="XMLID_74_">
			<line id="XMLID_157_" class="st12" x1="1036.7208252" y1="217.2498169" x2="1049.1072998" y2="207.025177"/>
			<g id="XMLID_80_">
				<polygon id="XMLID_141_" class="st13" points="1041.8797607,218.2945251 1041.9395752,217.2954407 1037.0174561,217.0062408 
					1037.6655273,212.1177216 1036.6732178,211.9871368 1035.8850098,217.9409485 				"/>
			</g>
		</g>
	</g>
	<g id="XMLID_22_" class="st11">
		<g id="XMLID_60_">
			<line id="XMLID_65_" class="st12" x1="982.182251" y1="261.3797302" x2="1013.2006836" y2="235.7750854"/>
			<g id="XMLID_61_">
				<polygon id="XMLID_62_" class="st13" points="1013.2489014,241.0385132 1012.2565918,240.9079285 1012.9052734,236.0201721 
					1007.9825439,235.7301941 1008.0423584,234.7311096 1014.0376587,235.0854492 				"/>
			</g>
		</g>
	</g>
	<text id="XMLID_21_" transform="matrix(0.7877 -0.61605 0.61605 0.7877 980.0960693 257.440094)" class="st17 st18 st20">x</text>
</g>
</svg>
