<?xml version="1.0" encoding="UTF-8" standalone="no"?>
<!-- Created with Inkscape (http://www.inkscape.org/) -->

<svg
   xmlns:dc="http://purl.org/dc/elements/1.1/"
   xmlns:cc="http://creativecommons.org/ns#"
   xmlns:rdf="http://www.w3.org/1999/02/22-rdf-syntax-ns#"
   xmlns:svg="http://www.w3.org/2000/svg"
   xmlns="http://www.w3.org/2000/svg"
   xmlns:sodipodi="http://sodipodi.sourceforge.net/DTD/sodipodi-0.dtd"
   xmlns:inkscape="http://www.inkscape.org/namespaces/inkscape"
   width="118.5995"
   height="20.12286"
   viewBox="0 0 118.5995 20.12286"
   id="svg3769"
   version="1.1"
   inkscape:version="0.91 r13725"
   sodipodi:docname="booking.com.svg">
  <defs
     id="defs3771">
    <clipPath
       id="clipPath3414"
       clipPathUnits="userSpaceOnUse">
      <path
         inkscape:connector-curvature="0"
         id="path3416"
         d="m 589.4997,28.97182 94.5002,0 0,-16.03433 -94.5002,0 0,16.03433 z" />
    </clipPath>
    <clipPath
       id="clipPath3420"
       clipPathUnits="userSpaceOnUse">
      <path
         inkscape:connector-curvature="0"
         id="path3422"
         d="m 589.4998,12.93748 94.50024,0 0,16.03433 -94.50024,0 0,-16.03433 z" />
    </clipPath>
    <clipPath
       id="clipPath3390"
       clipPathUnits="userSpaceOnUse">
      <path
         inkscape:connector-curvature="0"
         id="path3392"
         d="m 589.4997,28.97182 94.5002,0 0,-16.03433 -94.5002,0 0,16.03433 z" />
    </clipPath>
    <clipPath
       id="clipPath3396"
       clipPathUnits="userSpaceOnUse">
      <path
         inkscape:connector-curvature="0"
         id="path3398"
         d="m 589.4998,28.65624 94.4801,0 0,-15.69829 -94.4801,0 0,15.69829 z" />
    </clipPath>
    <clipPath
       id="clipPath3402"
       clipPathUnits="userSpaceOnUse">
      <path
         inkscape:connector-curvature="0"
         id="path3404"
         d="m 589.4998,12.93748 94.50024,0 0,16.03433 -94.50024,0 0,-16.03433 z" />
    </clipPath>
    <clipPath
       id="clipPath3362"
       clipPathUnits="userSpaceOnUse">
      <path
         inkscape:connector-curvature="0"
         id="path3364"
         d="m 589.4997,28.97182 94.5002,0 0,-16.03433 -94.5002,0 0,16.03433 z" />
    </clipPath>
    <clipPath
       id="clipPath3368"
       clipPathUnits="userSpaceOnUse">
      <path
         inkscape:connector-curvature="0"
         id="path3370"
         d="m 589.4998,12.93748 94.50024,0 0,16.03433 -94.50024,0 0,-16.03433 z" />
    </clipPath>
  </defs>
  <sodipodi:namedview
     id="base"
     pagecolor="#ffffff"
     bordercolor="#666666"
     borderopacity="1.0"
     inkscape:pageopacity="0.0"
     inkscape:pageshadow="2"
     inkscape:zoom="7.6630299"
     inkscape:cx="59.04975"
     inkscape:cy="9.8114313"
     inkscape:document-units="px"
     inkscape:current-layer="layer1"
     showgrid="false"
     fit-margin-top="0"
     fit-margin-left="0"
     fit-margin-right="0"
     fit-margin-bottom="0"
     units="px"
     inkscape:window-width="1280"
     inkscape:window-height="744"
     inkscape:window-x="-4"
     inkscape:window-y="-4"
     inkscape:window-maximized="1" />
  <metadata
     id="metadata3774">
    <rdf:RDF>
      <cc:Work
         rdf:about="">
        <dc:format>image/svg+xml</dc:format>
        <dc:type
           rdf:resource="http://purl.org/dc/dcmitype/StillImage" />
        <dc:title></dc:title>
      </cc:Work>
    </rdf:RDF>
  </metadata>
  <g
     inkscape:label="Layer 1"
     inkscape:groupmode="layer"
     id="layer1"
     transform="translate(-358.09311,-676.33649)">
    <g
       id="g3358"
       transform="matrix(1.25,0,0,-1.25,-378.53164,712.40679)">
      <g
         id="g3360"
         clip-path="url(#clipPath3362)">
        <g
           id="g3366"
           clip-path="url(#clipPath3368)">
          <path
             d="m 626.5585,27.21656 c 0,0.79592 0.6424,1.43968 1.4332,1.43968 0.7935,0 1.4384,-0.64376 1.4384,-1.43968 0,-0.79489 -0.6449,-1.43933 -1.4384,-1.43933 -0.7908,0 -1.4332,0.64444 -1.4332,1.43933"
             style="fill:#273b7d;fill-opacity:1;fill-rule:nonzero;stroke:none"
             id="path3372"
             inkscape:connector-curvature="0" />
          <path
             d="m 649.215,17.64066 c 0,0.79625 0.6421,1.4407 1.4329,1.4407 0.7932,0 1.438,-0.64445 1.438,-1.4407 0,-0.79421 -0.6448,-1.43934 -1.438,-1.43934 -0.7908,0 -1.4329,0.64513 -1.4329,1.43934"
             style="fill:#499fdd;fill-opacity:1;fill-rule:nonzero;stroke:none"
             id="path3374"
             inkscape:connector-curvature="0" />
          <path
             d="m 602.9915,18.26292 c -1.2367,0 -2.0961,0.98219 -2.0961,2.38571 0,1.40317 0.8594,2.38468 2.0961,2.38468 1.2438,0 2.1127,-0.98151 2.1127,-2.38468 0,-1.42569 -0.8508,-2.38571 -2.1127,-2.38571 z m 0,6.86713 c -2.6164,0 -4.5152,-1.88522 -4.5152,-4.48142 0,-2.5962 1.8988,-4.48108 4.5152,-4.48108 2.6262,0 4.5329,1.88488 4.5329,4.48108 0,2.5962 -1.9067,4.48142 -4.5329,4.48142"
             style="fill:#273b7d;fill-opacity:1;fill-rule:nonzero;stroke:none"
             id="path3376"
             inkscape:connector-curvature="0" />
          <path
             d="m 623.7774,20.42449 c -0.1017,0.19139 -0.2183,0.35344 -0.3425,0.48205 l -0.0791,0.08393 0.0832,0.07983 c 0.1201,0.12657 0.2429,0.27668 0.3613,0.45066 l 2.3089,3.43237 -2.8029,0 -1.7348,-2.68489 c -0.0982,-0.14397 -0.2965,-0.21664 -0.5933,-0.21664 l -0.3954,0 0,5.07606 c 0,1.01528 -0.6325,1.15345 -1.3158,1.15345 l -1.1698,0 0.002,-11.98174 2.4836,0 0,3.59408 0.2327,0 c 0.2831,0 0.4759,-0.03275 0.5643,-0.18661 l 1.3701,-2.58596 c 0.3827,-0.70176 0.7641,-0.82151 1.4816,-0.82151 l 1.9033,0 -1.4175,2.34477 -0.9399,1.78015"
             style="fill:#273b7d;fill-opacity:1;fill-rule:nonzero;stroke:none"
             id="path3378"
             inkscape:connector-curvature="0" />
          <path
             d="m 635.8345,25.14916 c -1.2633,0 -2.0694,-0.5612 -2.5211,-1.03575 l -0.1508,-0.1525 -0.0532,0.20742 c -0.1327,0.50833 -0.58,0.78808 -1.2531,0.78808 l -1.1131,0 0.007,-8.65377 2.4667,0 0,3.98846 c 0,0.38994 0.0507,0.72836 0.1538,1.03711 0.2746,0.93443 1.0405,1.51542 1.9978,1.51542 0.77,0 1.0709,-0.40632 1.0709,-1.4564 l 0,-3.76909 c 0,-0.89622 0.4145,-1.3155 1.3114,-1.3155 l 1.1739,0 -0.004,5.50387 c 0,2.18681 -1.0665,3.34265 -3.0855,3.34265"
             style="fill:#273b7d;fill-opacity:1;fill-rule:nonzero;stroke:none"
             id="path3380"
             inkscape:connector-curvature="0" />
          <path
             d="m 628.0245,24.95265 -1.1692,0 0.008,-6.69109 -8e-4,0 0,-1.96096 1.248,0 c 0.0157,0 0.0283,-0.0017 0.044,-0.0017 l 0.5813,0.0017 0.5786,0 0,0.0034 0.004,0 0.005,7.33485 c 0,0.88496 -0.4231,1.31379 -1.2981,1.31379"
             style="fill:#273b7d;fill-opacity:1;fill-rule:nonzero;stroke:none"
             id="path3382"
             inkscape:connector-curvature="0" />
          <path
             d="m 612.6806,18.26292 c -1.2366,0 -2.0977,0.98219 -2.0977,2.38571 0,1.40317 0.8611,2.38468 2.0977,2.38468 1.2412,0 2.1125,-0.98151 2.1125,-2.38468 0,-1.42569 -0.8505,-2.38571 -2.1125,-2.38571 z m 0,6.86713 c -2.619,0 -4.5182,-1.88522 -4.5182,-4.48142 0,-2.5962 1.8992,-4.48108 4.5182,-4.48108 2.6235,0 4.5333,1.88488 4.5333,4.48108 0,2.5962 -1.9098,4.48142 -4.5333,4.48142"
             style="fill:#273b7d;fill-opacity:1;fill-rule:nonzero;stroke:none"
             id="path3384"
             inkscape:connector-curvature="0" />
        </g>
      </g>
    </g>
    <g
       id="g3386"
       transform="matrix(1.25,0,0,-1.25,-378.53164,712.40679)">
      <g
         id="g3388"
         clip-path="url(#clipPath3390)">
        <g
           id="g3394"
           clip-path="url(#clipPath3396)">
          <g
             id="g3400"
             clip-path="url(#clipPath3402)">
            <path
               d="m 665.5551,18.26292 c -1.2361,0 -2.0978,0.98219 -2.0978,2.38571 0,1.40317 0.8617,2.38468 2.0978,2.38468 1.2414,0 2.1131,-0.98151 2.1131,-2.38468 0,-1.42569 -0.8509,-2.38571 -2.1131,-2.38571 z m 0,6.86713 c -2.6184,0 -4.5176,-1.88522 -4.5176,-4.48142 0,-2.5962 1.8992,-4.48108 4.5176,-4.48108 2.6238,0 4.5332,1.88488 4.5332,4.48108 0,2.5962 -1.9094,4.48142 -4.5332,4.48142"
               style="fill:#499fdd;fill-opacity:1;fill-rule:nonzero;stroke:none"
               id="path3406"
               inkscape:connector-curvature="0" />
            <path
               d="m 644.1219,18.64366 c -1.3486,0 -1.8286,1.17664 -1.8286,2.27926 0,0.4858 0.1228,2.06911 1.699,2.06911 0.7833,0 1.8272,-0.22448 1.8272,-2.15065 0,-1.81665 -0.9238,-2.19772 -1.6976,-2.19772 z m 2.9783,6.33219 c -0.4681,0 -0.8283,-0.18661 -1.0088,-0.52743 l -0.0682,-0.13236 -0.1143,0.09927 c -0.3982,0.34457 -1.1121,0.75327 -2.2714,0.75327 -2.3066,0 -3.8595,-1.73239 -3.8595,-4.3105 0,-2.57505 1.6068,-4.37464 3.9059,-4.37464 0.7853,0 1.4059,0.1832 1.8978,0.55574 l 0.1904,0.14294 0,-0.24051 c 0,-1.15584 -0.7475,-1.79346 -2.1025,-1.79346 -0.6585,0 -1.2579,0.16034 -1.6587,0.30568 -0.5234,0.15795 -0.8301,0.02729 -1.0423,-0.49775 l -0.1958,-0.48444 -0.277,-0.70756 0.1716,-0.09143 c 0.8672,-0.46022 1.9961,-0.73485 3.0165,-0.73485 2.1008,0 4.5537,1.07532 4.5537,4.10138 l 0.009,7.93665 -1.146,0"
               style="fill:#273b7d;fill-opacity:1;fill-rule:nonzero;stroke:none"
               id="path3408"
               inkscape:connector-curvature="0" />
          </g>
        </g>
      </g>
    </g>
    <g
       id="g3410"
       transform="matrix(1.25,0,0,-1.25,-378.53164,712.40679)">
      <g
         id="g3412"
         clip-path="url(#clipPath3414)">
        <g
           id="g3418"
           clip-path="url(#clipPath3420)">
          <path
             d="m 593.8048,18.3622 -2.008,0.002 0,2.40071 c 0,0.5131 0.1989,0.77989 0.6386,0.84129 l 1.3694,0 c 0.9774,0 1.6089,-0.61647 1.6096,-1.61366 -7e-4,-1.02347 -0.6165,-1.62971 -1.6096,-1.63039 z m -2.008,6.47617 0,0.63182 c 0,0.55301 0.234,0.81604 0.7475,0.84982 l 1.0275,0 c 0.8812,0 1.409,-0.52743 1.409,-1.40966 0,-0.67276 -0.3613,-1.45776 -1.3766,-1.45776 l -1.8074,0 0,1.38578 z m 4.5725,-2.39594 -0.363,0.20401 0.3169,0.27088 c 0.3685,0.31693 0.9863,1.02926 0.9863,2.26015 0,1.88319 -1.4608,3.09873 -3.7217,3.09873 l -2.5801,0 0,6.8e-4 -0.2938,0 c -0.6703,-0.02457 -1.2066,-0.56973 -1.2141,-1.2442 l 0,-10.68944 1.1841,0 c 0.003,-6.8e-4 0.004,0 0.005,-6.8e-4 l 2.9499,6.8e-4 c 2.5133,0 4.1355,1.36804 4.1355,3.48696 0,1.14082 -0.5243,2.11619 -1.4055,2.61223"
             style="fill:#273b7d;fill-opacity:1;fill-rule:nonzero;stroke:none"
             id="path3424"
             inkscape:connector-curvature="0" />
          <path
             d="m 681.1074,25.12118 c -1.0235,0 -2.0129,-0.47932 -2.6481,-1.28308 l -0.1788,-0.22653 -0.1402,0.25348 c -0.4568,0.8331 -1.2432,1.25613 -2.3366,1.25613 -1.1466,0 -1.9156,-0.63966 -2.2728,-1.02005 l -0.2337,-0.25314 -0.09,0.33297 c -0.1304,0.47932 -0.5571,0.74338 -1.2036,0.74338 l -1.0368,0 -0.01,-8.62033 2.3557,0 0,3.80525 c 0,0.33331 0.0413,0.66321 0.1248,1.00812 0.2252,0.91941 0.8431,1.90842 1.8819,1.80949 0.6407,-0.06141 0.9535,-0.55643 0.9535,-1.51269 l 0,-5.11017 2.3724,0 0,3.80525 c 0,0.41655 0.0389,0.72837 0.1328,1.04121 0.191,0.87779 0.8361,1.77776 1.8384,1.77776 0.7253,0 0.9935,-0.41075 0.9935,-1.51405 l 0,-3.84994 c 0,-0.87097 0.3885,-1.26023 1.2588,-1.26023 l 1.1088,0 0.002,5.50318 c 0,2.19841 -0.9679,3.31399 -2.8725,3.31399"
             style="fill:#499fdd;fill-opacity:1;fill-rule:nonzero;stroke:none"
             id="path3426"
             inkscape:connector-curvature="0" />
          <path
             d="m 659.6735,19.29697 c -0.007,-0.0085 -1.0207,-1.07737 -2.3553,-1.07737 -1.2159,0 -2.4444,0.74611 -2.4444,2.41163 0,1.43797 0.9525,2.44302 2.3158,2.44302 0.4428,0 0.9463,-0.15864 1.0251,-0.42542 l 0.0116,-0.04504 c 0.1815,-0.60487 0.7312,-0.63728 0.8393,-0.63728 l 1.2906,-0.0014 0,1.1282 c 0,1.48812 -1.8928,2.02783 -3.1666,2.02783 -2.7238,0 -4.7002,-1.89648 -4.7002,-4.50803 0,-2.61053 1.9549,-4.50428 4.6504,-4.50428 2.3386,0 3.6104,1.53724 3.6223,1.5526 l 0.0679,0.08324 -1.0221,1.69554 -0.1344,-0.14328"
             style="fill:#499fdd;fill-opacity:1;fill-rule:nonzero;stroke:none"
             id="path3428"
             inkscape:connector-curvature="0" />
        </g>
      </g>
    </g>
  </g>
</svg>
