<?xml version="1.0" encoding="utf-8"?>
<!-- Generator: Adobe Illustrator 28.0.0, SVG Export Plug-In . SVG Version: 6.00 Build 0)  -->
<svg version="1.1" id="Layer_1" xmlns="http://www.w3.org/2000/svg" xmlns:xlink="http://www.w3.org/1999/xlink" x="0px" y="0px"
	 viewBox="0 0 300 76" style="enable-background:new 0 0 300 76;" xml:space="preserve">
<style type="text/css">
	.st0{fill:#009B00;}
	.st1{fill:#FFFFFF;}
</style>
<g>
	<g>
		<g>
			<path id="XMLID_00000140736198009515606990000010951064397802023075_" d="M93.96,37.76h13.76c-0.32,1.3-0.8,2.54-1.44,3.71
				c-0.76,1.39-1.77,2.63-3.01,3.69c-1.24,1.06-2.75,1.92-4.48,2.56c-1.73,0.64-3.75,0.96-6.01,0.96c-2.14,0-4.16-0.41-6.01-1.22
				c-1.85-0.81-3.48-2-4.85-3.55c-1.37-1.55-2.47-3.51-3.27-5.81c-0.8-2.31-1.2-5.01-1.2-8.02c0-2.95,0.42-5.6,1.24-7.89
				c0.82-2.28,1.94-4.22,3.35-5.78c1.4-1.55,3.04-2.73,4.88-3.51c1.86-0.79,3.85-1.19,5.94-1.19c3.2,0,5.9,0.74,8.02,2.2
				c1.83,1.26,3.2,2.79,4.09,4.53c0.08,0.16,0.26,0.57,0.39,0.88c0.1,0.23,0.32,0.38,0.57,0.38h11.16c0.42,0,0.72-0.4,0.6-0.8
				c-0.09-0.3-0.18-0.6-0.21-0.69c-0.75-2.31-1.76-4.47-3.02-6.45c-1.39-2.19-3.17-4.08-5.27-5.65c-2.1-1.55-4.54-2.78-7.26-3.65
				c-2.71-0.87-5.76-1.31-9.07-1.31c-3.91,0-7.59,0.76-10.93,2.25c-3.34,1.49-6.27,3.56-8.71,6.14c-2.45,2.58-4.37,5.66-5.73,9.16
				c-1.35,3.49-2.04,7.32-2.04,11.38c0,4.06,0.7,7.9,2.08,11.42c1.38,3.53,3.3,6.62,5.68,9.19c2.39,2.58,5.27,4.65,8.56,6.14
				c3.29,1.5,6.86,2.26,10.61,2.26c3.93,0,7.39-0.81,10.3-2.4c2.17-1.19,3.94-3.16,5.27-4.76v5.58c0,0.34,0.28,0.62,0.62,0.62h9.64
				c0.34,0,0.62-0.28,0.62-0.62V27.98c0-0.34-0.28-0.62-0.62-0.62H93.96c-0.34,0-0.62,0.28-0.62,0.62v9.16
				C93.34,37.48,93.62,37.76,93.96,37.76z"/>
			<path id="XMLID_00000183215639780549696170000001391493034315058867_" d="M123.89,58.44h10.12c0.34,0,0.62-0.28,0.62-0.62V1.78
				c0-0.34-0.28-0.62-0.62-0.62h-10.12c-0.34,0-0.62,0.28-0.62,0.62v56.04C123.26,58.17,123.54,58.44,123.89,58.44z"/>
			<path id="XMLID_00000018955112335638445950000017677865551173412286_" d="M177.81,48.9V29.88c0-2.07-0.29-4.04-0.87-5.85
				c-0.59-1.85-1.61-3.47-3.04-4.81c-1.42-1.33-3.3-2.4-5.61-3.17c-2.28-0.76-5.16-1.15-8.56-1.15c-2.86,0-5.46,0.34-7.71,1.02
				c-2.26,0.68-4.25,1.65-5.89,2.89c-1.65,1.24-2.99,2.72-3.99,4.41c-0.83,1.4-1.43,2.92-1.8,4.54c-0.04,0.16-0.12,0.61-0.19,1
				c-0.07,0.38,0.22,0.73,0.61,0.73h10.46c0.28,0,0.52-0.18,0.59-0.44c0.1-0.33,0.25-0.78,0.44-1.13c0.52-0.97,1.22-1.73,2.21-2.28
				c1.38-0.76,3.18-1.15,5.34-1.15c2.27,0,3.99,0.32,5.14,0.95c1.03,0.57,1.54,1.45,1.54,2.7c0,1.42-0.83,2.43-2.53,3.1
				c-1.91,0.75-5.02,1.42-9.24,1.99c-1.92,0.27-3.87,0.65-5.8,1.13c-1.96,0.49-3.75,1.21-5.31,2.14c-1.59,0.95-2.9,2.21-3.87,3.75
				c-0.99,1.56-1.49,3.56-1.49,5.96c0,2.27,0.45,4.27,1.35,5.92c0.89,1.65,2.08,3,3.53,4.04c1.44,1.03,3.1,1.78,4.95,2.25
				c1.82,0.46,3.71,0.7,5.61,0.7c3.6,0,6.6-0.67,8.91-1.99c1.75-1,3.21-2.25,4.37-3.73c0.1,0.82,0.93,4.84,0.93,4.84h9.9
				C177.81,58.22,177.81,50.85,177.81,48.9z M166.49,41.82c0,2.35-0.92,4.17-2.8,5.57c-1.92,1.42-4.48,2.14-7.61,2.14
				c-2.29,0-3.95-0.35-4.92-1.04c-0.91-0.64-1.36-1.53-1.36-2.69c0-1.4,0.51-2.34,1.56-2.89c1.21-0.63,2.92-1.16,5.07-1.57
				c2.24-0.43,4.29-0.87,6.08-1.32c1.45-0.36,2.78-0.87,3.97-1.52V41.82z"/>
			<g id="XMLID_00000116947227419860836870000003778219275487333797_">
				<g id="XMLID_00000049188986431471966260000014328475466111771042_">
					<path id="XMLID_00000006684442945383001530000013865149987049483685_" d="M223.7,1.15h-10.08c-0.34,0-0.62,0.28-0.62,0.62
						v18.66c-0.97-1.17-2.2-2.26-3.69-3.26c-2.22-1.5-5.05-2.26-8.4-2.26c-2.58,0-5.08,0.57-7.44,1.69
						c-2.35,1.12-4.44,2.68-6.21,4.65c-1.77,1.96-3.19,4.33-4.22,7.05c-1.03,2.71-1.55,5.68-1.55,8.82c0,3.19,0.51,6.16,1.51,8.82
						c1,2.66,2.4,5,4.14,6.96c1.75,1.97,3.83,3.52,6.18,4.61c2.36,1.1,4.91,1.65,7.59,1.65c3.18,0,6-0.74,8.38-2.2
						c1.64-1.01,2.98-2.21,4.03-3.58v4.21c0,0.34,0.28,0.62,0.62,0.62h9.76c0.34,0,0.62-0.28,0.62-0.62V1.77
						C224.32,1.43,224.04,1.15,223.7,1.15z M212.2,42.23c-0.53,1.45-1.25,2.69-2.14,3.69c-0.89,0.99-1.95,1.75-3.16,2.26
						c-2.43,1.04-5.26,1.04-7.69,0c-1.21-0.52-2.27-1.28-3.16-2.26c-0.89-0.99-1.61-2.23-2.14-3.69c-0.53-1.46-0.8-3.15-0.8-5.03
						c0-1.88,0.27-3.6,0.8-5.12c0.53-1.51,1.25-2.79,2.14-3.81c0.89-1.01,1.95-1.8,3.16-2.34c1.21-0.54,2.5-0.82,3.83-0.82
						s2.62,0.28,3.83,0.82c1.21,0.54,2.27,1.33,3.16,2.34c0.9,1.02,1.62,2.3,2.14,3.8c0.53,1.52,0.8,3.24,0.8,5.12
						C213,39.08,212.73,40.77,212.2,42.23z"/>
				</g>
			</g>
			<path id="XMLID_00000056424616257313661490000016907252426400422071_" d="M229.4,58.22h10.08c0.34,0,0.62-0.28,0.62-0.62V1.77
				c0-0.34-0.28-0.62-0.62-0.62H229.4c-0.34,0-0.62,0.28-0.62,0.62V57.6C228.78,57.94,229.06,58.22,229.4,58.22z"/>
			<path id="XMLID_00000119101181509545631070000012707957171573743757_" d="M274.66,15.95c-0.27,0-0.5,0.17-0.59,0.42l-7.96,23.57
				c-0.26,0.79-0.52,1.63-0.77,2.5c-0.2,0.71-0.37,1.39-0.52,2.03c-0.15-0.65-0.33-1.36-0.54-2.11c-0.24-0.86-0.5-1.68-0.77-2.43
				l-8.44-23.57c-0.09-0.25-0.32-0.41-0.58-0.41h-10.72c-0.43,0-0.73,0.44-0.58,0.84l15.76,41.5l-0.47,1.28
				c-1.34,3.62-4.29,5.39-9.02,5.39h-1.62c-0.34,0-0.62,0.28-0.62,0.62v8.65c0,0.34,0.28,0.62,0.62,0.62h1.86
				c4.77,0,8.7-0.93,11.68-2.76c3-1.84,5.25-4.67,6.67-8.4l17.52-46.9c0.15-0.41-0.15-0.84-0.58-0.84H274.66z"/>
		</g>
		<g id="XMLID_00000024714067126381966280000003810476824204934072_">
			<g id="XMLID_00000016048546667578196590000017561673646323943331_">
				<path id="XMLID_00000161597928520583836420000015455091954748777373_" class="st0" d="M28.08,3.06
					C12.85,3.06,0.5,15.41,0.5,30.64c0,15.23,12.35,27.58,27.58,27.58c15.23,0,27.58-12.35,27.58-27.58
					C55.65,15.41,43.31,3.06,28.08,3.06z"/>
			</g>
			<polygon id="XMLID_00000089543475361901216760000006084786878599099824_" class="st1" points="44.92,28.77 29.95,28.77 
				29.95,13.8 26.21,13.8 26.21,28.77 11.23,28.77 11.23,32.51 26.21,32.51 26.21,47.48 29.95,47.48 29.95,32.51 44.92,32.51 			"/>
		</g>
	</g>
	<g>
		<path d="M293.59,27.79c-3.28,0-5.93-2.65-5.93-5.93c0-3.26,2.65-5.91,5.93-5.91c3.26,0,5.91,2.65,5.91,5.91
			C299.5,25.14,296.85,27.79,293.59,27.79z M293.59,17.47c-2.38,0-4.31,1.98-4.31,4.39c0,2.42,1.93,4.39,4.31,4.39
			s4.29-1.97,4.29-4.39C297.88,19.45,295.96,17.47,293.59,17.47z M296.47,24.73h-1.8l-0.88-1.77h-0.82v1.77h-1.61v-6.05h2.88
			c1.41,0,2.18,0.87,2.18,2.16c0,0.84-0.43,1.46-1.08,1.79L296.47,24.73z M294.14,21.53c0.43,0,0.64-0.28,0.64-0.69
			c0-0.43-0.2-0.69-0.64-0.69h-1.18v1.38H294.14z"/>
	</g>
</g>
</svg>
