<svg xmlns="http://www.w3.org/2000/svg" width="2500" height="2500" viewBox="0 0 192.756 192.756"><g fill-rule="evenodd" clip-rule="evenodd"><path fill="#fff" d="M0 0h192.756v192.756H0V0z"/><path fill="#8cbe4f" d="M26.69 142.949h138.531L96.323 74.052 26.69 142.949z"/><path d="M24.042 139.49l10.793-10.529-3.595-3.686-6.779 6.614-11.942-12.243-4.015 3.918 15.538 15.926zM37.204 126.562l11.059-10.789-3.037-3.113-7.021 6.85-3.373-3.455 5.627-5.491-3.178-3.257-5.627 5.49-2.889-2.963 6.791-6.625-3.035-3.113-11.024 10.756 15.707 15.71zM50.598 113.582l4.146-4.045-8.479-8.691 13.708 3.615 4.114-4.014s-9.93-3.387-10.402-3.305c-.153.025 2.133-6.058-3.003-8.754 0 0-3.811-2.062-7.625 1.401L34.928 97.8l15.67 15.782zM73.498 91.433c5.496-5.361 3.539-12.304-.097-16.03-4.46-4.572-12.196-4.025-15.923-.39s-5.629 10.887-.365 16.281c5.78 5.925 12.658 3.775 16.385.139z"/><path d="M70.123 88.303c2.467-2.407 2.335-4.783-1.657-8.874-3.499-3.587-6.44-2.323-7.888-.91-2.106 2.054-2.28 5.037.616 8.005 3.446 3.532 6.462 4.186 8.929 1.779z" fill="#fff"/><path d="M85.84 79.199l4.08-3.981-6.138-6.292-3.674-15.286-4.677 4.564 2.433 8.672-8.22-3.027-4.409 4.302 14.013 4.5 6.592 6.548z"/><path d="M46.091 100.701s-3.612-3.701-3.74-3.834c-.128-.131 2.583-2.455 3.01-2.872.181-.177 1.869-1.277 3.265.154 0 0 2.383 1.882.079 4.13-2.303 2.248-2.614 2.422-2.614 2.422z" fill="#fff"/><path d="M84.574 56.652l-3.626-3.655 15.831-15.702 5.18 5.223-5.703 11.224 11.627-5.251 4.986 5.027-15.832 15.701-3.82-3.851 8.357-8.288-11.432 5.187-2.363-2.383 5.313-11.421-8.518 8.189zM112.059 84.364l-10.975-11.065 15.832-15.701 11.006 11.098-3.199 3.172-6.895-6.952-2.578 2.557 5.438 5.484-3.329 3.302-5.406-5.451-3.461 3.432 6.83 6.887-3.263 3.237zM115.619 87.955l4.08 4.113 8.65-8.579-3.115 14.16 4.176 4.211s3.293-10.128 3.393-10.551c0 0 3.568 1.965 7.482-1.399 0 0 3.754-3.658.812-7.928l-9.615-9.695-15.863 15.668zM148.252 89.194l4.08 4.113-11.98 11.881 6.703 6.757-3.852 3.821-10.781-10.871 15.83-15.701zM146.051 118.637l15.832-15.701 3.98 4.015-15.83 15.701-3.982-4.015zM157.252 129.932l-3.723-3.754 15.83-15.701 5.409 5.451-4.62 16.299 10.479-10.391 3.625 3.654-15.83 15.701-4.727-4.765 4.069-17.114-10.512 10.62z"/><path d="M128.643 83.197l3.787-3.755s2.59 2.611 2.912 2.938c.324.326 2.367 1.863-.113 4.193 0 0-2.021 1.356-3.803-.438l-2.783-2.938z" fill="#fff"/></g></svg>