<?xml version="1.0" encoding="utf-8"?>
<!-- Generator: Adobe Illustrator 19.2.1, SVG Export Plug-In . SVG Version: 6.00 Build 0)  -->
<svg version="1.1" id="layer" xmlns="http://www.w3.org/2000/svg" xmlns:xlink="http://www.w3.org/1999/xlink" x="0px" y="0px"
	 viewBox="0 0 652 652" style="enable-background:new 0 0 652 652;" xml:space="preserve">
<style type="text/css">
	.st0{fill:#0C193A;}
	.st1{fill:url(#SVGID_1_);}
	.st2{fill:#FFFFFF;}
</style>
<rect x="20.5" y="227.3" class="st0" width="600" height="187.5"/>
<g>
	<g>
		
			<linearGradient id="SVGID_1_" gradientUnits="userSpaceOnUse" x1="173.0047" y1="470.0775" x2="175.0755" y2="471.8802" gradientTransform="matrix(31.5004 0 0 -29.8161 -5367.5664 14368.4824)">
			<stop  offset="4.418800e-004" style="stop-color:#0397A7"/>
			<stop  offset="0.9971" style="stop-color:#00ECCD"/>
		</linearGradient>
		<path class="st1" d="M177.6,306.7l-31.3-38.2c-2.3-2.8-5.8-4.1-9.3-3.6L88,272.8c-3.5,0.6-6.5,2.9-7.8,6.3l-17.8,46
			c-1.2,3.3-0.7,7.1,1.5,9.8L95.2,373c2.3,2.8,5.8,4.1,9.3,3.6l49.1-7.8c3.5-0.6,6.5-2.9,7.8-6.3l17.8-46
			C180.5,313.2,179.9,309.5,177.6,306.7z"/>
		<polygon class="st2" points="134.2,298.6 123.2,318.2 112.3,294.9 98.7,298.5 82,342.1 96.9,342.1 107.1,316.4 117,340.8 
			124.6,340.8 139.3,314.6 139.3,348.2 153.3,343.4 153.3,302 		"/>
		<g transform="translate(33.2 9)">
			<path class="st2" d="M313.9,305.9c3.8-3.6,8.4-5.3,13.9-5.3c5.5,0,10.2,1.7,13.9,5.3c3.8,3.5,5.6,8,5.6,13.6
				c0,5.5-1.9,10-5.6,13.5c-3.7,3.4-8.3,5.2-13.9,5.2c-5.5,0-10.2-1.7-13.9-5.2c-3.7-3.5-5.5-8-5.5-13.5
				C308.4,314,310.3,309.4,313.9,305.9z M327.9,327.7c4.1,0,7.4-3.2,7.4-8.2c0-5-3.3-8.3-7.4-8.3c-4.1,0-7.4,3.4-7.4,8.3
				C320.5,324.4,323.8,327.7,327.9,327.7z M292.3,300.7c8.4,0,12,4.4,12,12.3v24.3h-13.5v-21.5c0-2.2-0.8-3.5-2.5-3.5
				c-1.6,0-4.7,0.6-6.7,1.9v23.2h-13.4v-35.9h11.1l0.7,2.7c2.2-1.4,7.4-3.3,11.4-3.4L292.3,300.7L292.3,300.7z M204.4,293.6
				l19.4,3.4v41.3l-14.2,4.7v-33.4l-14.9,26.4h-7.8l-10.1-24.6l-10.3,25.8h-15.2l17-43.8l13.8-3.7l11.1,23.5L204.4,293.6
				L204.4,293.6z M231.3,302.5c9.8-1.7,31.9-6.8,32,13.1v21.8H253l-0.8-1.7c0,0-3.6,2.7-11.3,2.7c-8.4,0-12.9-5.7-12.9-11.3
				c0-9.1,8.1-11.3,17.3-11.3h6.4c0-3.7-2.3-5.1-7.1-5c-6.8,0-12.2,1.5-13.3,1.9L231.3,302.5L231.3,302.5z M251.7,323.7v-0.4l-6-0.1
				c-4.7,0-7,0.7-7,3.1c0,2.4,2,3.3,5.3,3.3C249,329.7,251.7,327.9,251.7,323.7z M511.9,305.9c3.8-3.6,8.4-5.3,13.9-5.3
				s10.2,1.7,13.9,5.3c3.8,3.5,5.6,8,5.6,13.6s-1.9,10-5.6,13.5c-3.7,3.4-8.3,5.2-13.9,5.2c-5.5,0-10.2-1.7-13.9-5.2
				c-3.7-3.5-5.5-8-5.5-13.5C506.3,314,508.1,309.4,511.9,305.9z M525.8,327.7c4.1,0,7.4-3.2,7.4-8.2c0-5-3.3-8.3-7.4-8.3
				c-4.1,0-7.4,3.4-7.4,8.3C518.4,324.4,521.7,327.7,525.8,327.7z M490.2,300.7c8.4,0,11.9,4.4,11.9,12.3v24.3h-13.5v-21.5
				c0-2.2-0.8-3.5-2.5-3.5c-1.6,0-4.7,0.6-6.7,1.9v23.2h-13.4v-35.9h11.1l0.7,2.7c2.2-1.4,7.4-3.3,11.4-3.4L490.2,300.7L490.2,300.7
				z M402.3,293.6l19.4,3.4v41.3l-14.2,4.7v-33.4l-15,26.4h-7.7l-10.1-24.6l-10.3,25.8h-15.2l17-43.8l13.8-3.7l11.1,23.5
				L402.3,293.6L402.3,293.6z M429.1,302.5c9.8-1.7,32-6.8,32,13.1v21.8h-10.3l-0.8-1.7c0,0-3.6,2.7-11.3,2.7
				c-8.4,0-12.9-5.7-12.9-11.3c0-9.1,8.1-11.3,17.3-11.3h6.4c0-3.7-2.3-5.1-7.1-5c-6.8,0-12.2,1.5-13.3,1.9L429.1,302.5L429.1,302.5
				z M449.6,323.7v-0.4l-6-0.1c-4.7,0-7,0.7-7,3.1c0,2.4,2,3.3,5.3,3.3C446.9,329.7,449.6,327.9,449.6,323.7z"/>
		</g>
	</g>
</g>
</svg>
