<?xml version="1.0" encoding="UTF-8" standalone="no"?>
<svg
   version="1.1"
   id="svg204"
   sodipodi:docname="Logo Michelin.svg"
   width="750"
   height="146.34544"
   inkscape:version="1.2 (dc2aeda, 2022-05-15)"
   xmlns:inkscape="http://www.inkscape.org/namespaces/inkscape"
   xmlns:sodipodi="http://sodipodi.sourceforge.net/DTD/sodipodi-0.dtd"
   xmlns="http://www.w3.org/2000/svg"
   xmlns:svg="http://www.w3.org/2000/svg">
  <defs
     id="defs208" />
  <sodipodi:namedview
     id="namedview206"
     pagecolor="#ffffff"
     bordercolor="#666666"
     borderopacity="1.0"
     inkscape:showpageshadow="2"
     inkscape:pageopacity="0.0"
     inkscape:pagecheckerboard="0"
     inkscape:deskcolor="#d1d1d1"
     showgrid="false"
     inkscape:zoom="1.1125147"
     inkscape:cx="119.54899"
     inkscape:cy="76.403487"
     inkscape:window-width="1920"
     inkscape:window-height="1080"
     inkscape:window-x="0"
     inkscape:window-y="0"
     inkscape:window-maximized="0"
     inkscape:current-layer="svg204" />
  <g
     id="g1199">
    <path
       d="m 4.229474,34.388211 0.057282,0.133658 0.4009724,0.954696 a 112.17681,112.17681 0 0 0 5.3462996,11.322698 35.323761,35.323761 0 0 0 3.923801,5.795006 20.640533,20.640533 0 0 0 -3.093216,6.826078 20.898301,20.898301 0 0 0 0.954697,11.160399 24.220644,24.220644 0 0 0 2.109878,4.592089 2.1098787,2.1098787 0 0 0 -0.08592,0.381879 21.709793,21.709793 0 0 0 8.840487,20.220471 23.934235,23.934235 0 0 0 3.255514,2.052597 16.812201,16.812201 0 0 0 5.728178,7.895338 22.998633,22.998633 0 0 0 6.444199,3.55147 v 0.0668 a 19.523538,19.523538 0 0 0 10.998101,7.43708 c 1.177141,0.32937 2.377194,0.57282 3.589658,0.72557 a 1.9093925,1.9093925 0 0 0 0.181392,0.21004 20.564157,20.564157 0 0 0 8.659095,4.84985 22.263517,22.263517 0 0 0 0.954697,10.50166 H 190.10979 a 22.919393,22.919393 0 0 0 -3.37008,-12.13419 2.04305,2.04305 0 0 0 -0.20048,-0.26731 c 1.71177,-12.70987 -6.76116,-24.557655 -19.34215,-27.046553 -0.63965,-0.124111 -1.30793,-0.229127 -1.96667,-0.305503 h -0.26732 A 53.004736,53.004736 0 0 0 149.19056,82.714936 c 0.0764,-0.343691 0.1432,-0.677835 0.21958,-0.954697 l 0.25776,-0.08592 c 6.90246,-3.083669 10.97901,-8.143559 11.93371,-14.797792 a 21.862544,21.862544 0 0 0 -3.81879,-15.141483 1.9762212,1.9762212 0 0 0 0,-0.210033 c 0.70648,-7.10294 -0.36278,-13.308466 -3.17914,-18.425637 a 22.005749,22.005749 0 0 0 -9.80473,-9.375118 h -0.0573 c -1.12654,-3.818785 -5.99549,-6.682873 -11.19859,-6.587404 -4.10519,0.114564 -8.59226,2.033503 -10.26298,5.184001 -6.24371,2.253083 -15.93388,8.067183 -18.8648,22.779052 a 19.561726,19.561726 0 0 0 -2.67315,29.194612 93.292918,93.292918 0 0 0 -17.986478,1.909392 l -0.229127,0.05728 a 24.592975,24.592975 0 0 0 -20.048621,-3.933348 2.0525969,2.0525969 0 0 0 -0.725569,0.353237 36.278458,36.278458 0 0 0 -6.148244,-1.250652 2.0239561,2.0239561 0 0 0 -0.41052,0 20.11545,20.11545 0 0 0 -4.954873,-8.315404 c -0.114564,-0.114564 -0.381879,-0.324597 -0.381879,-0.343691 a 48.269442,48.269442 0 0 0 -1.269746,-5.728177 16.926765,16.926765 0 0 0 -4.668464,-7.73304 18.406544,18.406544 0 0 0 -5.308112,-3.675581 13.365748,13.365748 0 0 0 0.53463,-1.775735 4.0097243,4.0097243 0 0 0 0.07638,-0.448707 c 0,-0.06683 0.744663,-7.179316 1.594343,-11.399073 V 31.858266 C 44.173965,17.35643 44.173965,17.146397 44.2217,16.984099 v -0.08592 a 4.6684647,4.6684647 0 0 0 -1.269746,-3.56102 6.2914483,6.2914483 0 0 0 -4.64937,-1.909392 7.4084429,7.4084429 0 0 0 -6.339184,3.627845 19.771759,19.771759 0 0 0 -1.909392,4.343868 C 27.648173,14.740563 24.497676,8.6018658 22.235046,4.1243404 L 22.110935,3.8952133 A 6.0241333,6.0241333 0 0 0 17.022404,1.0311246 6.3487301,6.3487301 0 0 0 14.788415,1.4416439 5.9668516,5.9668516 0 0 0 10.87416,5.26378e-5 6.8356252,6.8356252 0 0 0 8.6974525,0.37238417 5.8809289,5.8809289 0 0 0 4.6781813,6.2151252 5.7281775,5.7281775 0 0 0 0.94531896,10.56854 7.4943656,7.4943656 0 0 0 1.0980703,13.738132 c 0,0.08592 0.047735,0.21958 0.1145636,0.420066 l -0.1813923,0.267315 c -1.42249739,2.233989 -2.1576135,6.34873 3.1982324,19.934058"
       fill="#000000"
       id="path186"
       style="stroke-width:0.954696" />
    <g
       id="g1152"
       style="fill:#ffffff">
      <path
         style="fill:#ffffff;stroke-width:0.954696"
         d="m 186.01319,133.00834 h -5.05034 a 24.583428,24.583428 0 0 0 3.93334,-6.50148 18.60703,18.60703 0 0 1 1.10745,6.50148"
         id="path188" />
      <path
         style="fill:#ffffff;stroke-width:0.954696"
         d="m 102.89733,78.399709 a 12.91704,12.91704 0 0 1 2.97866,0.56327 c 1.90939,0.716023 5.61361,4.296134 7.63757,4.611183 0.35323,0 1.27929,-0.181392 0.27686,-0.897414 -0.27686,-0.200486 -2.61587,-2.281724 -1.7471,-3.360531 a 1.0501659,1.0501659 0 0 1 1.14564,-0.43916 c 2.93092,0.725569 5.37494,1.145635 6.21507,1.269746 0.51554,0.07638 0.88787,0.08592 1.0979,-0.09547 0.21004,-0.181392 0.0573,-0.305503 -0.51553,-0.467801 -4.52526,-1.212464 -9.54697,-3.160045 -13.00297,-5.785459 a 16.229836,16.229836 0 0 1 -6.45374,-14.912356 15.647472,15.647472 0 0 1 6.08141,-10.43483 17.604599,17.604599 0 0 1 4.11474,-1.909392 c 1.64208,-0.591912 -1.05016,-1.021525 -1.2411,-1.059713 -0.68738,-0.114564 -0.72557,-0.821039 -0.1623,-2.978652 a 24.163362,24.163362 0 0 1 15.80977,-16.43987 30.445263,30.445263 0 0 1 3.5992,-0.906961 c 1.5848,-0.238674 0.9547,-0.954697 -0.82103,-1.16473 0,0 -0.61101,0 -0.31505,-0.429613 a 4.3629619,4.3629619 0 0 1 0.90696,-0.792398 10.501659,10.501659 0 0 1 5.20309,-1.50842 c 3.69468,-0.09547 6.88336,1.966674 7.25569,3.86652 0,0 0.13366,0.381878 -0.31505,0.400972 -0.70647,0 -1.27929,0.324597 -0.3055,0.811492 0.22913,0.114564 1.21247,0.410519 2.59677,1.050166 l 0.20049,0.105017 c 2.78771,1.298386 11.45636,6.56831 10.82626,21.480665 0,0.448707 -0.0573,0.897415 -0.0859,1.336575 -0.0286,0.43916 -0.0859,0.821039 -0.13365,1.231558 -0.8115,-0.09547 -1.17428,0.248221 -0.59192,0.840133 a 17.814632,17.814632 0 0 1 2.0717,2.663602 18.196511,18.196511 0 0 1 2.40583,11.456355 14.091317,14.091317 0 0 1 -7.28433,10.501659 34.903695,34.903695 0 0 1 -9.14599,3.484641 c -0.86878,0.200487 -0.45826,1.327028 3.57056,1.269746 0.34369,0 1.07881,0.07638 1.28884,0.477349 0.4678,0.868773 -0.33414,2.568133 -2.09078,3.599204 -1.50842,0.887868 -0.30551,1.078807 1.79483,0.448708 a 7.4084429,7.4084429 0 0 1 2.43447,0.639646 47.906658,47.906658 0 0 1 18.45428,14.645044 c 4.46798,6.41556 6.09096,11.45636 4.68756,14.6355 -1.40341,3.17913 -5.39404,3.64693 -5.42268,3.64693 H 165.85 c -15.59973,2.42493 -42.66537,-1.85211 -61.32968,-7.35116 A 111.30804,111.30804 0 0 1 91.994701,107.90937 26.168224,26.168224 0 0 0 87.755849,80.079974 l -0.276862,-0.295956 a 88.433514,88.433514 0 0 1 15.380163,-1.260199"
         id="path1079" />
      <path
         style="fill:#ffffff;stroke-width:0.954696"
         d="m 84.719915,82.676748 c 6.234167,7.026564 7.284333,17.719172 2.491758,25.433112 -5.365393,8.64955 -14.988732,12.92659 -23.943782,10.64486 a 18.950721,18.950721 0 0 1 -3.656487,-1.33657 22.454456,22.454456 0 0 0 2.520398,-0.52508 c 8.811846,-2.38674 15.389704,-10.50166 16.373041,-20.230017 a 23.428246,23.428246 0 0 0 -4.773482,-16.850394 20.220467,20.220467 0 0 0 -4.439337,-4.133835 21.003318,21.003318 0 0 1 15.418344,6.997924"
         id="path1085" />
      <path
         style="fill:#ffffff;stroke-width:0.954696"
         d="m 179.25394,106.18137 c 5.68331,8.47675 4.13383,19.86246 -3.60875,26.51192 0.0955,-3.69468 -0.55373,-8.00036 -3.27461,-11.45636 a 9.2987415,9.2987415 0 0 0 2.75907,-3.51328 c 2.06215,-4.62073 0.35324,-10.91218 -5.07898,-18.712044 v -0.04774 l -0.35324,-0.458254 a 20.048621,20.048621 0 0 1 9.5947,7.637578"
         id="path190" />
      <path
         style="fill:#ffffff;stroke-width:0.954696"
         d="m 70.533129,82.409433 a 19.294411,19.294411 0 0 1 3.885614,13.881288 C 73.607251,104.31972 68.232311,111.02168 61.052995,112.96926 A 19.609461,19.609461 0 0 1 45.224131,110.55388 21.852997,21.852997 0 0 0 65.177283,95.546058 20.716909,20.716909 0 0 0 64.909968,82.084836 19.781306,19.781306 0 0 0 61.85494,76.662161 a 17.241814,17.241814 0 0 1 8.592266,5.728178"
         id="path192" />
      <path
         style="fill:#ffffff;stroke-width:0.954696"
         d="m 56.833238,82.619466 a 24.306567,24.306567 0 0 0 0.420066,-4.973967 16.229836,16.229836 0 0 1 4.105194,16.649902 C 58.685349,102.61081 49.825767,107.89028 41.61538,106.05726 a 18.005571,18.005571 0 0 1 -9.957482,-6.119599 21.347008,21.347008 0 0 0 4.506166,0.486899 21.003318,21.003318 0 0 0 8.410874,-1.756645 21.633417,21.633417 0 0 0 12.306035,-16.048449"
         id="path194" />
      <path
         style="fill:#ffffff;stroke-width:0.954696"
         d="M 50.694541,68.929122 A 18.396997,18.396997 0 0 1 52.766232,81.846162 17.050875,17.050875 0 0 1 25.08004,92.529213 17.97693,17.97693 0 0 1 17.767067,79.984504 c 0.420067,0.372332 0.859227,0.716023 1.307934,1.040619 a 19.389881,19.389881 0 0 0 11.456355,3.55147 20.659627,20.659627 0 0 0 5.432222,-0.687381 C 43.46749,81.769786 47.143071,77.26362 48.909259,73.855355 A 19.67629,19.67629 0 0 0 50.6659,68.957763"
         id="path196" />
      <path
         style="fill:#ffffff;stroke-width:0.954696"
         d="m 65.578255,123.32772 a 23.991517,23.991517 0 0 0 2.549039,0.1432 c 8.420421,0 16.630809,-4.43933 21.852998,-12.096 a 112.65416,112.65416 0 0 0 13.384838,4.93578 219.58014,219.58014 0 0 0 33.08023,6.87381 151.4912,151.4912 0 0 0 18.93163,1.33658 73.377954,73.377954 0 0 0 11.08402,-0.74466 12.334676,12.334676 0 0 0 2.14807,-0.52509 c 2.52994,2.66361 3.02638,6.52058 2.86409,9.78564 H 66.943471 a 16.821748,16.821748 0 0 1 -1.355669,-9.71881"
         id="path1020" />
      <path
         style="fill:#ffffff;stroke-width:0.954696"
         d="m 4.5349768,16.535392 0.1622984,-0.114564 a 1.3461217,1.3461217 0 0 1 0.4964421,-0.286409 h 0.7255691 a 1.9093925,1.9093925 0 0 1 0.3818785,0.09547 c 1.1838234,0.429613 2.0525969,1.909392 2.3294589,4.019271 a 24.125174,24.125174 0 0 0 3.7233152,10.11978 0.89284549,0.89284549 0 1 0 1.451139,-1.040619 22.616754,22.616754 0 0 1 -3.398719,-9.317835 C 10.034028,17.213226 8.7642812,15.237005 6.9217175,14.549623 A 3.570564,3.570564 0 0 0 5.5755958,14.330043 10.320266,10.320266 0 0 1 5.0314189,12.850264 C 4.8500266,12.086507 4.506336,10.56854 6.2056953,9.9861753 L 6.530292,9.8907057 H 6.7021373 C 7.9336955,9.7379543 9.5662264,10.301225 11.160569,16.058043 a 44.192889,44.192889 0 0 0 5.012155,10.663958 0.88786751,0.88786751 0 0 0 1.489327,-0.954697 43.12363,43.12363 0 0 1 -4.773482,-10.167515 C 12.191641,13.117579 11.208304,10.415789 9.5375852,9.0314791 9.2989111,8.4204735 9.0315962,7.7426392 8.9647674,7.5230591 8.6783586,6.6733794 8.3824027,4.7830808 10.005387,4.2484509 a 2.8640888,2.8640888 0 0 1 0.897414,-0.1622983 2.5872268,2.5872268 0 0 1 2.26263,1.9093925 c 0,0.1145635 0.105017,0.238674 0.162299,0.3723315 l 7.32252,17.4900354 a 0.67783434,0.67783434 0 0 0 0.229127,0.31505 0.82103878,0.82103878 0 0 0 1.298387,-0.954697 L 15.046183,6.26286 a 1.5657019,1.5657019 0 0 1 0.811492,-0.8401327 2.5872268,2.5872268 0 0 1 1.164729,-0.3436906 1.9762212,1.9762212 0 0 1 1.613437,0.8974144 c 0,0 9.46104,18.5974829 11.217681,21.8052619 a 18.139229,18.139229 0 0 0 -1.38431,2.692244 c -0.12411,0.477348 0.190939,0.906961 0.420067,0.458254 a 27.590722,27.590722 0 0 1 1.909392,-2.453569 0.26731495,0.26731495 0 0 0 0.06683,-0.105017 c 0.448707,-0.792398 1.833017,-4.487072 2.38674,-5.651802 a 19.67629,19.67629 0 0 1 2.052597,-5.470409 3.4178126,3.4178126 0 0 1 2.921371,-1.728 c 1.06926,0 1.909392,0.544176 1.909392,1.0979 0,0.248221 -2.319912,14.597306 -2.319912,14.597306 -0.601458,2.997746 -1.136088,7.293879 -1.432044,9.785637 a 12.096002,12.096002 0 0 1 -0.200486,1.804375 v 0.19094 c 0,0 0,0.133657 -0.08592,0.353237 a 18.692953,18.692953 0 0 1 -1.336575,3.818785 l 0.744664,3.417813 c 0.295955,1.441591 0.620552,2.988199 0.744663,3.456 0.544176,1.909393 -0.152752,3.074122 0.200486,3.465548 0.496442,0.544177 1.699359,-2.04305 2.014409,-3.379625 a 14.072223,14.072223 0 0 0 -0.505989,-4.773481 14.320444,14.320444 0 0 1 4.028818,2.816354 12.859759,12.859759 0 0 1 3.64694,5.995492 35.571982,35.571982 0 0 1 1.403403,6.864266 c 0.04773,1.842564 -0.582364,11.6282 -12.153283,14.883715 a 16.401682,16.401682 0 0 1 -4.296133,0.53463 15.27514,15.27514 0 0 1 -9.069615,-2.816354 C 15.924503,73.654868 13.738249,64.957585 14.83615,60.35595 a 16.458963,16.458963 0 0 1 2.205348,-5.050344 c 0.515536,0.31696 1.06735,0.572818 1.642078,0.763757 l 0.334143,1.584796 c 0,0.190939 0.954697,4.611183 2.654056,5.957305 a 5.6231609,5.6231609 0 0 0 3.140951,0.849679 c 0.505989,0 1.718453,-0.05728 1.909392,-0.582364 a 0.47734813,0.47734813 0 0 0 -0.133657,-0.53463 2.3771937,2.3771937 0 0 0 -0.53463,-0.334144 c -0.821039,-0.448707 -2.3581,-1.269746 -2.682697,-2.778166 -0.181392,-0.84968 -0.887867,-3.818785 -1.298387,-5.584973 1.718454,-1.365216 1.909393,-2.864089 -0.34369,-2.396288 A 4.3916028,4.3916028 0 0 1 18.148946,51.133584 C 13.623685,47.190688 8.9265796,35.056499 7.9814303,32.908432 4.1626453,23.170531 3.3416065,17.948342 4.5349768,16.487657"
         id="path198" />
    </g>
    <g
       id="g1116">
      <path
         d="m 121.34207,58.732966 c -0.0955,-0.353238 -0.54418,-0.353238 -0.69693,-0.353238 a 3.9524425,3.9524425 0 0 0 -1.29839,0.267315 2.9404645,2.9404645 0 0 0 -1.83302,2.415382 0.42006635,0.42006635 0 0 0 0.12411,0.295956 0.50598901,0.50598901 0 0 0 0.38188,0.152751 0.34369065,0.34369065 0 0 0 0.33415,-0.343691 1.4511383,1.4511383 0 0 1 0.41052,-0.830585 3.6469397,3.6469397 0 0 1 2.07169,-0.954697 c 0.23867,-0.05728 0.57281,-0.238674 0.47734,-0.591911"
         fill="#000000"
         id="path200"
         style="stroke-width:0.954696" />
      <path
         id="path1107"
         style="stroke-width:0.954696"
         d="m 144.92969,40.341797 a 5.4704095,5.4704095 0 0 0 -0.84766,0.01367 4.5443542,4.5443542 0 0 0 -0.86719,0.18164 c -2.76861,0.87832 -3.87622,3.33066 -4.69726,6.681641 -0.89741,3.704218 0.3626,8.077603 2.7207,8.822266 a 13.843096,13.843096 0 0 0 1.55664,0.333984 6.2723544,6.2723544 0 0 0 1.79492,0.105469 3.818785,3.818785 0 0 0 1.90821,-0.726563 8.2294817,8.2294817 0 0 0 2.49218,-3.484375 12.086455,12.086455 0 0 0 0.87891,-4.039062 12.907493,12.907493 0 0 0 -0.33398,-4.03711 5.0694371,5.0694371 0 0 0 -2.19727,-3.123047 5.4704095,5.4704095 0 0 0 -2.4082,-0.728515 z m -0.51563,2.050781 c 0.25715,0.0038 0.52894,0.02662 0.81446,0.07227 4.00016,0.649192 3.5796,5.881143 3.30273,7.513672 l -0.01,-0.0293 a 10.272532,10.272532 0 0 1 -0.57226,1.910156 7.0552053,7.0552053 0 0 1 -2.09961,2.988281 2.6826965,2.6826965 0 0 1 -1.16602,0.476563 6.2914483,6.2914483 0 0 0 2.5586,-4.84961 c 0.27687,-3.074119 -1.14424,-5.728326 -3.17774,-5.890625 a 3.1791385,3.1791385 0 0 0 -2.64453,1.279297 1.6134367,1.6134367 0 0 1 1.375,1.708985 1.6420776,1.6420776 0 0 1 -1.2793,1.910156 1.4320444,1.4320444 0 0 1 -1.34765,-1.183594 8.2485756,8.2485756 0 0 0 -0.29492,1.583984 6.4823875,6.4823875 0 0 0 1.39453,4.97461 4.1815696,4.1815696 0 0 1 -1.5293,-2.40625 8.5922663,8.5922663 0 0 1 -0.31445,-1.583984 9.6615261,9.6615261 0 0 1 0.55469,-4.697266 l 0.0859,-0.267578 c 0.6662,-1.730385 1.86385,-3.546748 4.34961,-3.509766 z" />
      <path
         id="path1103"
         style="stroke-width:0.954696"
         d="m 127.98438,37.962891 a 5.7281775,5.7281775 0 0 0 -1.72657,0.1875 5.1458128,5.1458128 0 0 0 -3.01562,2.46289 12.773836,12.773836 0 0 0 -1.42188,3.884766 11.952797,11.952797 0 0 0 -0.18164,4.171875 8.2103878,8.2103878 0 0 0 1.57422,4.039062 3.9619894,3.9619894 0 0 0 1.70899,1.203125 6.6828738,6.6828738 0 0 0 1.82421,0.371094 15.27514,15.27514 0 0 0 1.64258,0.07813 c 2.55859,-0.105017 4.97245,-4.039296 5.04883,-7.886719 0.0764,-3.503731 -0.38998,-6.196238 -2.91992,-7.771484 a 4.572995,4.572995 0 0 0 -0.83203,-0.400391 5.7281775,5.7281775 0 0 0 -1.70117,-0.339843 z m -0.35938,2.082031 c 0.1239,0.0024 0.25078,0.01031 0.38086,0.02344 3.16959,0.31505 4.01914,2.654218 4.25781,4.697266 v 0.277344 a 9.5469625,9.5469625 0 0 1 -0.67773,4.716797 8.9645978,8.9645978 0 0 1 -0.73438,1.458984 3.7328623,3.7328623 0 0 1 -2.53125,2.005859 h -0.23828 a 6.1291499,6.1291499 0 0 0 2.7207,-4.916015 c 0.27686,-3.074119 -1.18266,-5.728546 -3.27343,-5.900391 a 3.2555142,3.2555142 0 0 0 -2.69336,1.269531 1.8616577,1.8616577 0 0 1 0.10547,3.580078 1.4702322,1.4702322 0 0 1 -1.375,-1.193359 8.2676695,8.2676695 0 0 0 -0.30469,1.583985 6.6828738,6.6828738 0 0 0 1.18359,4.677734 2.7495252,2.7495252 0 0 1 -0.34375,-0.34375 7.0361114,7.0361114 0 0 1 -1.31836,-3.464844 10.129327,10.129327 0 0 1 -0.0664,-2.013672 l 0.01,0.01758 c 0.14799,-1.609258 1.05743,-6.551147 4.89844,-6.476562 z" />
      <path
         id="path1099"
         style="stroke-width:0.954696"
         d="m 120.3457,59.996094 a 0.88786751,0.88786751 0 0 0 -0.77929,0.828125 0.95469625,0.95469625 0 0 0 0.63867,0.955078 26.578744,26.578744 0 0 0 3.41797,1.402344 8.7163768,8.7163768 0 0 1 2.50195,2.128906 14.196333,14.196333 0 0 0 3.08398,2.501953 11.72367,11.72367 0 0 0 7.42774,1.306641 9.6519791,9.6519791 0 0 0 3.61719,-1.345703 22.969992,22.969992 0 0 0 2.26367,-1.699219 11.28451,11.28451 0 0 1 1.375,-0.955078 c 0.28641,-0.162299 2.2899,-0.953667 3.34961,-1.574219 0,0.372332 0.001,0.696406 0.23047,0.74414 0.22913,0.04774 0.52367,-0.466871 0.61914,-0.896484 a 1.9093925,1.9093925 0 0 0 -0.10352,-1.117187 1.4511383,1.4511383 0 0 0 -1.0039,-0.726563 l -0.0176,-0.08594 c -0.43916,-0.04774 -0.55466,0.325546 -0.38282,0.46875 0.064,0.05442 0.12128,0.114811 0.17188,0.18164 l -0.42969,0.248047 a 14.874168,14.874168 0 0 1 -3.11133,1.03125 26.731495,26.731495 0 0 1 -8.00976,0.429688 42.407607,42.407607 0 0 1 -12.8418,-3.046875 l -1.07812,-0.476563 c -0.18139,-0.07638 -0.35376,-0.190984 -0.53516,-0.257812 a 0.88786751,0.88786751 0 0 0 -0.4043,-0.04492 z m 7.23047,4.341797 a 38.789309,38.789309 0 0 0 13.14649,1.134765 9.6233382,9.6233382 0 0 1 -3.06446,1.71875 9.3369293,9.3369293 0 0 1 -3.56054,0.324219 10.062498,10.062498 0 0 1 -3.42774,-0.869141 11.06493,11.06493 0 0 1 -3.09375,-2.308593 z" />
    </g>
  </g>
  <path
     style="fill:#fce500;fill-opacity:1;stroke-width:0.954696"
     d="M 634.85409,133.03698 H 31.867931 l -4.849857,13.30847 H 629.96604 Z"
     id="path182" />
  <g
     id="g477"
     style="fill:#27509b;fill-opacity:1">
    <path
       style="fill:#27509b;fill-opacity:1;stroke-width:0.954696"
       d="m 603.3682,53.195728 h -25.07032 l -19.60946,53.205222 h 50.34113 l 6.51103,-17.680975 h -25.28036 z"
       id="path467" />
    <path
       style="fill:#27509b;fill-opacity:1;stroke-width:0.954696"
       d="m 529.47471,67.134293 h 29.3951 l 5.17445,-13.938565 h -53.73985 l -19.58082,53.205222 h 54.33177 l 5.27947,-14.320444 h -29.99656 l 2.1958,-5.919117 h 27.9917 l 4.77348,-13.098432 h -27.96306 z"
       id="path465" />
    <path
       style="fill:#27509b;fill-opacity:1;stroke-width:0.954696"
       d="m 638.4342,53.28165 -19.53309,53.15749 h 25.7768 l 19.57127,-53.195678 z"
       id="path463" />
    <path
       style="fill:#27509b;fill-opacity:1;stroke-width:0.954696"
       d="m 728.45251,53.28165 -13.43258,36.478944 c 0.18139,-3.675581 0.9547,-18.19651 1.36521,-26.569197 0.1814,-3.446453 -0.56327,-6.071868 -2.20534,-7.818962 a 7.1124871,7.1124871 0 0 0 -4.68756,-2.128973 h -29.93928 l -19.59991,53.205228 h 21.76707 l 13.88129,-37.681867 -1.64208,37.681867 h 36.4503 L 750,53.243462 Z"
       id="path461" />
    <path
       style="fill:#27509b;fill-opacity:1;stroke-width:0.954696"
       d="M 273.79751,53.28165 254.9709,81.855709 c 0,0 1.19337,-14.950543 1.49887,-18.549748 0.21958,-2.739978 -0.11456,-10.024311 -6.78789,-10.024311 h -29.8438 l -19.58082,53.19568 h 23.35187 l 14.18678,-38.48381 -2.9882,38.48381 h 20.73601 l 25.4522,-37.805976 -13.89083,37.805976 h 23.51417 l 19.58082,-53.19568 z"
       id="path459" />
    <path
       style="fill:#27509b;fill-opacity:1;stroke-width:0.954696"
       d="m 325.0456,53.28165 -19.59991,53.19568 h 25.7768 l 19.57127,-53.19568 z"
       id="path457" />
    <path
       style="fill:#27509b;fill-opacity:1;stroke-width:0.954696"
       d="m 471.25734,53.28165 -7.10294,19.160754 h -12.96478 l 7.05521,-19.160754 h -24.55479 l -19.53309,53.20523 h 24.49751 l 6.68287,-18.015126 h 12.99342 l -6.68288,18.015126 h 24.52615 l 19.57127,-53.243418 z"
       id="path455" />
    <path
       style="fill:#27509b;fill-opacity:1;stroke-width:0.954696"
       d="m 386.67125,53.768545 c -15.60929,3.198233 -36.75581,14.664135 -36.53623,35.591077 0.13366,12.067368 14.71187,18.769328 31.4286,18.301528 a 134.61217,134.61217 0 0 0 19.43762,-2.16716 l 6.20552,-16.115274 c -8.21038,1.298386 -16.09617,3.265061 -22.28261,0.792397 -11.15085,-4.458431 -4.28658,-16.05799 3.59921,-19.657195 a 31.504976,31.504976 0 0 1 13.88128,-2.978653 c 2.3581,0 8.11492,0.143205 10.34891,5.231736 l 7.79987,-18.692953 c -13.42303,-3.341437 -26.8938,-1.766188 -33.88217,-0.305503 z"
       id="path184" />
  </g>
</svg>
